<svg width="1158" height="447" viewBox="0 0 1158 447" fill="none" xmlns="http://www.w3.org/2000/svg">
<g opacity="0.15">
<path d="M718.169 167.619C709.544 179.68 703.322 193.67 699.475 207.959C699.287 208.66 699.109 209.362 698.94 210.065C698.882 210.293 698.835 210.523 698.781 210.749C698.67 211.222 698.558 211.694 698.458 212.169C698.384 212.492 698.321 212.814 698.256 213.139C698.177 213.518 698.093 213.896 698.021 214.275C697.944 214.668 697.872 215.062 697.8 215.457C697.746 215.764 697.686 216.071 697.632 216.379C697.551 216.837 697.474 217.295 697.399 217.752C697.362 217.998 697.315 218.242 697.278 218.485C697.195 219.003 697.118 219.523 697.041 220.042C697.015 220.223 696.987 220.404 696.962 220.584C696.88 221.156 696.799 221.729 696.722 222.303C696.704 222.431 696.687 222.557 696.671 222.683C696.59 223.29 696.515 223.9 696.44 224.507C696.431 224.581 696.42 224.652 696.412 224.726C696.412 224.726 696.412 224.728 696.41 224.728C696.391 224.886 696.37 225.045 696.35 225.203C696.182 226.078 695.852 229.041 695.768 230.383C695.724 230.793 695.675 231.207 695.633 231.621C694.968 237.939 694.527 244.204 695.526 250.515C696.347 255.681 698.325 260.701 701.902 264.578C701.99 264.673 702.082 264.759 702.168 264.85C701.716 266.118 701.292 267.373 700.897 268.597C700.567 269.611 700.275 270.633 699.992 271.662C699.908 271.967 699.827 272.271 699.747 272.574C699.536 273.381 699.34 274.187 699.154 275.001C699.094 275.259 699.033 275.517 698.973 275.776C698.772 276.72 698.582 277.661 698.404 278.612C698.311 279.115 698.223 279.62 698.139 280.127C698.056 280.597 697.979 281.07 697.906 281.54C697.081 286.744 696.596 292.017 696.217 297.183C695.703 304.208 696.003 311.827 699.473 318.12C699.028 318.899 698.616 319.691 698.228 320.496C698.083 320.803 697.955 321.117 697.814 321.427C697.588 321.929 697.355 322.43 697.148 322.944C696.969 323.382 696.813 323.831 696.648 324.278C696.505 324.664 696.352 325.048 696.217 325.439C696.031 325.988 695.864 326.54 695.696 327.094C695.607 327.387 695.509 327.68 695.426 327.978C695.242 328.618 695.075 329.267 694.912 329.916C694.862 330.125 694.805 330.33 694.755 330.54C694.579 331.271 694.423 332.004 694.272 332.741C694.249 332.867 694.22 332.991 694.195 333.114C694.034 333.921 693.892 334.726 693.76 335.538C693.752 335.59 693.739 335.643 693.73 335.695C693.592 336.556 693.464 337.416 693.352 338.277C693.32 338.503 693.283 338.734 693.254 338.962C692.808 341.322 692.536 344.961 692.338 346.725C691.523 354.853 691.558 363.183 696.825 369.917C696.292 369.233 697.504 364.472 697.6 363.625C697.706 362.691 698.872 358.118 698.249 357.32C696.154 354.642 694.874 351.663 694.072 348.372C693.688 346.802 693.522 345.184 693.392 343.579C693.366 343.255 693.359 342.929 693.348 342.603C695.028 335.82 698.26 329.276 702.928 324.103C703.126 323.885 703.329 323.675 703.531 323.468C711.248 331.582 726.523 340.998 728.857 325.441C729.474 321.338 730.952 315.842 730.31 311.509C730.307 311.469 730.298 311.432 730.293 311.39C730.258 311.185 730.223 310.981 730.182 310.778C730.167 310.711 730.147 310.645 730.133 310.575C730.091 310.408 730.055 310.24 730.005 310.075C729.984 309.996 729.956 309.917 729.932 309.838C729.883 309.687 729.835 309.542 729.781 309.398C729.748 309.314 729.711 309.231 729.679 309.149C729.625 309.017 729.565 308.882 729.5 308.753C729.46 308.667 729.418 308.584 729.372 308.502C729.309 308.379 729.243 308.258 729.169 308.141C729.122 308.057 729.067 307.978 729.013 307.897C728.939 307.783 728.86 307.673 728.78 307.564C728.72 307.487 728.657 307.406 728.596 307.332C728.51 307.227 728.42 307.125 728.326 307.027C728.257 306.954 728.187 306.88 728.112 306.81C728.013 306.717 727.913 306.626 727.805 306.536C727.726 306.466 727.643 306.398 727.561 306.333C727.452 306.247 727.331 306.168 727.216 306.087C727.123 306.024 727.037 305.961 726.944 305.905C726.818 305.826 726.679 305.754 726.546 305.682C726.447 305.63 726.353 305.575 726.248 305.528C726.102 305.456 725.944 305.391 725.788 305.332C725.685 305.286 725.587 305.242 725.48 305.205C725.302 305.139 725.11 305.079 724.918 305.025C724.826 304.995 724.733 304.962 724.633 304.935C724.336 304.855 724.028 304.786 723.702 304.727C716.814 303.469 709.931 306.194 705.023 310.88C703.496 309.259 702.216 307.666 701.334 306.296C699.55 303.518 698.63 300.145 698.027 296.938C697.629 294.823 697.509 292.657 697.443 290.506C697.429 290.055 697.441 289.601 697.448 289.152C697.504 288.771 697.569 288.405 697.641 288.068C699.11 281.105 701.546 273.67 705.398 267.438C708.953 269.611 713.17 270.361 717.48 270.468C721.567 270.57 727.38 269.979 730.889 267.135C733.893 265.574 734.778 259.439 735.21 254.296C735.271 253.571 735.305 252.902 735.32 252.283C735.333 251.858 735.333 251.464 735.326 251.085C735.322 250.994 735.322 250.904 735.32 250.818C735.313 250.468 735.299 250.133 735.28 249.824C735.28 249.817 735.28 249.807 735.28 249.8C735.259 249.484 735.233 249.198 735.205 248.926C735.199 248.854 735.191 248.783 735.184 248.712C735.152 248.456 735.12 248.216 735.089 248.006C734.824 245.558 733.749 243.261 731.541 241.935C725.834 238.505 716.772 244.763 712.516 248.139C710.214 249.963 708.337 252.279 706.764 254.837C704.041 253.058 701.814 250.506 700.192 247.671C698.255 244.274 697.295 240.381 696.75 236.543C696.445 234.376 696.348 232.18 696.326 229.992C696.319 229.338 696.331 228.682 696.352 228.028C696.391 227.821 696.438 227.619 696.476 227.414C697.935 219.713 700.345 212.164 703.349 204.903C703.494 204.55 703.652 204.201 703.803 203.847C704.164 202.99 704.525 202.134 704.902 201.285C705.439 200.079 705.991 198.883 706.556 197.696C710.946 188.469 716.438 179.627 723.293 172.026C728.487 166.269 735.173 160.614 743.094 159.445C744.256 159.274 743.537 146.993 744.519 146.851C733.158 148.527 724.442 158.843 718.169 167.619ZM718.004 317.164C720.496 316.966 723.056 317.233 725.359 318.234C726.067 318.544 726.639 318.979 727.1 319.474C723.682 322.579 718.413 321.071 713.421 317.906C714.894 317.534 716.423 317.289 718.004 317.164ZM725.946 253.791C726.2 253.766 726.449 253.754 726.693 253.75C726.839 253.75 726.981 253.761 727.119 253.77C727.217 253.773 727.319 253.773 727.412 253.78C727.579 253.796 727.743 253.822 727.908 253.85C727.971 253.861 728.038 253.864 728.103 253.875C728.28 253.91 728.45 253.955 728.622 254.003C728.667 254.015 728.717 254.022 728.76 254.038C728.943 254.092 729.116 254.157 729.288 254.225C729.323 254.239 729.358 254.25 729.39 254.261C729.569 254.336 729.742 254.42 729.912 254.513C729.935 254.524 729.96 254.534 729.983 254.546C730.156 254.641 730.321 254.746 730.486 254.857C730.505 254.869 730.523 254.88 730.54 254.892C730.709 255.004 730.863 255.127 731.019 255.26C731.047 255.283 731.077 255.3 731.108 255.327C726.693 258.083 720.465 258.385 715.111 257.629C718.551 255.565 722.428 254.131 725.946 253.791Z" fill="#EAB948"/>
<path d="M967.378 337.734C967.343 337.529 967.308 337.326 967.268 337.124C967.252 337.058 967.233 336.987 967.219 336.921C967.177 336.752 967.14 336.586 967.091 336.421C967.07 336.34 967.042 336.26 967.017 336.183C966.968 336.033 966.921 335.886 966.868 335.744C966.835 335.66 966.798 335.576 966.765 335.495C966.71 335.36 966.651 335.227 966.588 335.097C966.547 335.011 966.503 334.929 966.46 334.846C966.397 334.724 966.33 334.604 966.256 334.485C966.207 334.401 966.155 334.322 966.1 334.241C966.027 334.127 965.948 334.017 965.865 333.91C965.806 333.831 965.742 333.752 965.683 333.679C965.595 333.573 965.506 333.473 965.411 333.373C965.343 333.3 965.272 333.228 965.197 333.154C965.099 333.061 964.997 332.97 964.892 332.881C964.811 332.812 964.731 332.746 964.648 332.679C964.54 332.593 964.418 332.516 964.303 332.434C964.21 332.372 964.122 332.309 964.029 332.251C963.903 332.172 963.766 332.104 963.633 332.03C963.535 331.981 963.44 331.925 963.337 331.878C963.191 331.806 963.033 331.743 962.875 331.678C962.772 331.636 962.674 331.592 962.567 331.553C962.39 331.487 962.197 331.429 962.006 331.374C961.911 331.343 961.82 331.31 961.72 331.283C961.424 331.203 961.113 331.136 960.789 331.075C953.901 329.819 947.018 332.542 942.11 337.228C940.581 335.607 939.303 334.015 938.421 332.646C936.636 329.868 935.717 326.493 935.114 323.287C934.716 321.172 934.595 319.009 934.53 316.857C934.518 316.403 934.528 315.951 934.533 315.502C934.589 315.123 934.654 314.755 934.725 314.42C935.3 311.698 936.027 308.905 936.923 306.141C936.324 306.455 935.724 306.778 935.126 307.097C935.081 307.362 935.037 307.625 934.995 307.89C934.17 313.092 933.685 318.367 933.306 323.529C932.792 330.554 933.09 338.173 936.562 344.468C936.117 345.246 935.703 346.039 935.317 346.847C935.17 347.153 935.044 347.466 934.903 347.777C934.677 348.278 934.444 348.778 934.237 349.292C934.056 349.732 933.902 350.179 933.737 350.626C933.592 351.012 933.441 351.398 933.306 351.789C933.12 352.336 932.953 352.89 932.785 353.442C932.696 353.733 932.598 354.03 932.513 354.326C932.329 354.968 932.163 355.617 932.001 356.267C931.951 356.474 931.893 356.679 931.844 356.888C931.668 357.621 931.51 358.354 931.361 359.09C931.337 359.217 931.307 359.339 931.282 359.466C931.121 360.272 930.979 361.077 930.848 361.886C930.839 361.94 930.828 361.992 930.818 362.047C930.679 362.906 930.551 363.765 930.439 364.628C930.407 364.856 930.371 365.084 930.339 365.31C929.894 367.67 929.624 371.307 929.425 373.073C928.61 381.202 928.645 389.535 933.913 396.267C933.38 395.581 934.591 390.82 934.688 389.973C934.795 389.04 935.961 384.467 935.337 383.669C933.241 380.99 931.961 378.011 931.158 374.721C930.776 373.15 930.609 371.532 930.479 369.925C930.453 369.601 930.446 369.277 930.435 368.949C932.115 362.168 935.349 355.624 940.015 350.451C940.213 350.232 940.416 350.025 940.618 349.814C948.335 357.93 963.61 367.348 965.944 351.785C966.561 347.684 968.04 342.19 967.4 337.855C967.393 337.813 967.384 337.776 967.378 337.734Z" fill="#EAB948"/>
<path d="M270.455 280.326C270.464 280.365 270.478 280.403 270.488 280.442C270.545 280.644 270.602 280.842 270.667 281.036C270.69 281.103 270.715 281.168 270.737 281.235C270.797 281.398 270.855 281.559 270.922 281.715C270.953 281.794 270.99 281.869 271.025 281.945C271.088 282.087 271.151 282.227 271.221 282.364C271.263 282.444 271.307 282.522 271.349 282.599C271.42 282.727 271.493 282.853 271.57 282.974C271.619 283.055 271.67 283.13 271.725 283.209C271.802 283.323 271.882 283.435 271.968 283.544C272.026 283.621 272.088 283.695 272.151 283.77C272.238 283.874 272.33 283.975 272.423 284.072C272.489 284.145 272.561 284.216 272.631 284.282C272.729 284.377 272.829 284.465 272.933 284.554C273.01 284.619 273.089 284.684 273.171 284.749C273.28 284.829 273.39 284.908 273.506 284.984C273.594 285.043 273.68 285.103 273.771 285.159C273.89 285.233 274.018 285.297 274.143 285.364C274.239 285.415 274.334 285.468 274.436 285.515C274.569 285.576 274.713 285.631 274.855 285.69C274.958 285.731 275.056 285.773 275.165 285.811C275.319 285.864 275.482 285.909 275.644 285.957C275.751 285.985 275.854 286.02 275.965 286.046C276.149 286.09 276.347 286.125 276.545 286.16C276.643 286.178 276.736 286.2 276.836 286.216C277.141 286.262 277.457 286.297 277.787 286.32C284.773 286.795 291.304 283.312 295.657 278.106C297.356 279.544 298.802 280.984 299.835 282.246C301.92 284.805 303.216 288.054 304.173 291.172C304.81 293.23 305.171 295.37 305.476 297.498C305.541 297.946 305.581 298.396 305.629 298.847C305.613 299.227 305.59 299.603 305.557 299.943C304.878 307.025 303.295 314.692 300.167 321.315C296.388 319.554 292.115 319.282 287.82 319.661C283.745 320.021 278.039 321.26 274.869 324.483C272.058 326.37 271.872 332.565 272.021 337.724C272.042 338.448 272.082 339.12 272.137 339.737C272.172 340.16 272.217 340.551 272.265 340.926C272.275 341.015 272.288 341.101 272.3 341.189C272.349 341.534 272.4 341.868 272.452 342.173C272.454 342.178 272.454 342.188 272.456 342.197C272.51 342.511 272.57 342.79 272.628 343.058C272.644 343.128 272.658 343.198 272.673 343.269C272.731 343.516 272.793 343.753 272.847 343.959C273.385 346.362 274.713 348.524 277.054 349.592C283.11 352.359 291.411 345.122 295.262 341.289C297.345 339.218 298.95 336.709 300.223 333.987C303.132 335.448 305.631 337.734 307.561 340.37C309.869 343.526 311.259 347.288 312.233 351.04C312.781 353.16 313.123 355.331 313.39 357.502C313.471 358.152 313.532 358.805 313.585 359.459C313.569 359.666 313.544 359.873 313.528 360.079C312.946 367.898 311.4 375.668 309.232 383.222C309.127 383.591 309.008 383.954 308.901 384.324C308.638 385.216 308.377 386.109 308.096 386.992C307.7 388.25 307.284 389.502 306.856 390.747C303.53 400.407 299.067 409.807 293.109 418.13C288.595 424.437 282.586 430.807 274.846 432.859C273.711 433.159 275.803 445.281 274.846 445.533C285.942 442.595 293.442 431.365 298.69 421.936C305.904 408.98 310.516 394.382 312.731 379.752C312.841 379.033 312.937 378.318 313.027 377.597C313.058 377.366 313.081 377.131 313.108 376.899C313.164 376.417 313.222 375.935 313.271 375.453C313.306 375.125 313.33 374.795 313.36 374.467C313.397 374.08 313.435 373.694 313.465 373.308C313.499 372.91 313.525 372.51 313.551 372.11C313.572 371.798 313.597 371.486 313.616 371.172C313.646 370.709 313.669 370.246 313.691 369.782C313.702 369.533 313.72 369.287 313.73 369.04C313.755 368.514 313.772 367.988 313.79 367.464C313.795 367.283 313.804 367.102 313.809 366.922C313.827 366.343 313.842 365.763 313.853 365.184C313.855 365.054 313.858 364.93 313.862 364.802C313.874 364.188 313.879 363.574 313.886 362.961C313.886 362.889 313.89 362.815 313.89 362.741V362.738C313.891 362.578 313.895 362.419 313.895 362.259C313.965 361.372 313.96 358.391 313.895 357.048C313.893 356.634 313.893 356.217 313.886 355.803C313.839 349.45 313.572 343.172 311.868 337.017C310.472 331.972 307.945 327.208 303.954 323.757C303.858 323.675 303.754 323.598 303.658 323.517C303.965 322.209 304.242 320.911 304.5 319.651C304.713 318.609 304.891 317.559 305.055 316.503C305.105 316.193 305.15 315.879 305.194 315.568C305.313 314.746 305.418 313.922 305.511 313.092C305.543 312.828 305.576 312.565 305.606 312.298C305.703 311.341 305.783 310.383 305.852 309.421C305.888 308.908 305.916 308.395 305.948 307.881C305.974 307.406 305.997 306.929 306.018 306.452C306.251 301.19 306.141 295.894 305.936 290.718C305.659 283.681 304.505 276.144 300.351 270.28C300.705 269.456 301.026 268.622 301.32 267.776C301.431 267.457 301.522 267.129 301.626 266.807C301.796 266.281 301.969 265.758 302.118 265.225C302.248 264.769 302.353 264.306 302.466 263.843C302.564 263.442 302.674 263.044 302.764 262.639C302.886 262.074 302.988 261.504 303.095 260.936C303.149 260.633 303.214 260.331 303.265 260.028C303.377 259.368 303.469 258.705 303.554 258.043C303.586 257.83 303.618 257.618 303.646 257.406C303.737 256.659 303.809 255.912 303.874 255.163C303.886 255.037 303.9 254.913 303.91 254.786C303.979 253.966 304.03 253.147 304.072 252.331C304.073 252.275 304.077 252.221 304.08 252.168C304.121 251.297 304.154 250.427 304.166 249.563V249.559C304.173 249.329 304.182 249.098 304.186 248.87C304.365 246.473 304.223 242.831 304.223 241.056C304.119 232.887 303.151 224.61 297.159 218.515C297.768 219.132 297.096 224.002 297.096 224.854C297.096 225.792 296.453 230.47 297.159 231.193C299.546 233.618 301.15 236.434 302.316 239.611C302.874 241.132 303.223 242.719 303.53 244.3C303.593 244.619 303.637 244.944 303.686 245.265C302.774 252.193 300.302 259.06 296.244 264.723C296.072 264.964 295.893 265.195 295.716 265.421C287.136 258.227 270.901 250.587 270.329 266.31C270.183 270.466 269.331 276.09 270.455 280.326ZM281.276 337.189C281.027 337.242 280.78 337.282 280.538 337.31C280.394 337.326 280.252 337.331 280.112 337.34C280.014 337.347 279.914 337.359 279.819 337.363C279.652 337.366 279.487 337.357 279.319 337.349C279.256 337.347 279.189 337.349 279.123 337.343C278.942 337.329 278.767 337.305 278.591 337.277C278.546 337.268 278.497 337.266 278.449 337.258C278.265 337.222 278.081 337.18 277.904 337.131C277.869 337.123 277.832 337.117 277.801 337.107C277.615 337.051 277.432 336.986 277.252 336.917C277.229 336.91 277.203 336.902 277.176 336.891C276.994 336.817 276.815 336.731 276.642 336.639C276.62 336.63 276.601 336.621 276.582 336.609C276.405 336.516 276.235 336.412 276.066 336.3C276.035 336.279 275.998 336.262 275.97 336.239C280.045 333.004 286.202 332.006 291.606 332.155C288.425 334.592 284.737 336.454 281.276 337.189ZM286.517 272.071C285.095 272.606 283.603 273.021 282.049 273.321C279.594 273.798 277.02 273.822 274.618 273.082C273.88 272.856 273.264 272.488 272.75 272.048C275.798 268.578 281.201 269.486 286.517 272.071Z" fill="#C5E5E0"/>
<path d="M46.0845 380.692C46.1423 380.894 46.1984 381.092 46.2651 381.286C46.2879 381.353 46.3124 381.418 46.337 381.484C46.3966 381.648 46.4545 381.811 46.5211 381.967C46.5509 382.044 46.5877 382.121 46.6228 382.195C46.6859 382.337 46.749 382.479 46.8192 382.614C46.8613 382.694 46.9051 382.77 46.9489 382.85C47.0173 382.977 47.091 383.101 47.1681 383.224C47.2172 383.305 47.2698 383.38 47.3224 383.459C47.3996 383.575 47.4803 383.685 47.5662 383.794C47.6241 383.871 47.6854 383.945 47.7485 384.02C47.8345 384.124 47.9256 384.225 48.0186 384.323C48.087 384.395 48.1571 384.465 48.2273 384.534C48.3255 384.629 48.4254 384.716 48.5289 384.806C48.6078 384.872 48.6849 384.935 48.7673 385C48.8725 385.081 48.9865 385.158 49.1023 385.237C49.1882 385.298 49.2759 385.356 49.3653 385.411C49.4845 385.484 49.6108 385.549 49.737 385.616C49.8317 385.667 49.9282 385.719 50.0264 385.767C50.1614 385.828 50.3034 385.884 50.4472 385.94C50.5507 385.98 50.6506 386.024 50.7576 386.063C50.9119 386.117 51.075 386.161 51.238 386.207C51.345 386.236 51.4485 386.272 51.5607 386.298C51.7448 386.343 51.9412 386.379 52.1393 386.414C52.2375 386.429 52.3305 386.454 52.4322 386.468C52.7373 386.514 53.0512 386.549 53.3808 386.571C60.3668 387.047 66.8987 383.566 71.2509 378.358C72.95 379.794 74.3984 381.235 75.4277 382.496C77.5144 385.056 78.8068 388.306 79.7659 391.422C80.4007 393.48 80.7637 395.621 81.0688 397.75C81.1319 398.197 81.1723 398.646 81.2196 399.097C81.2038 399.477 81.1828 399.853 81.1477 400.194C81.1056 400.631 81.0495 401.075 81.0004 401.513C81.2512 401.627 81.4879 401.759 81.7299 401.881C81.7632 398.224 81.672 394.571 81.5317 390.978C81.2529 383.941 80.1009 376.403 75.945 370.539C76.2992 369.717 76.6219 368.882 76.9147 368.039C77.0252 367.718 77.1164 367.39 77.2216 367.067C77.3899 366.543 77.5653 366.019 77.7143 365.485C77.8423 365.03 77.9475 364.567 78.0615 364.105C78.1597 363.702 78.2702 363.304 78.3596 362.901C78.4841 362.336 78.5841 361.766 78.6893 361.198C78.7454 360.895 78.8103 360.593 78.8594 360.29C78.9716 359.632 79.0628 358.969 79.1487 358.307C79.1803 358.094 79.2118 357.884 79.2399 357.67C79.3311 356.925 79.403 356.174 79.4696 355.426C79.4801 355.301 79.4959 355.175 79.5064 355.049C79.5748 354.226 79.6274 353.411 79.6695 352.594C79.6712 352.539 79.6748 352.485 79.6765 352.431C79.7186 351.559 79.7502 350.689 79.7642 349.825V349.821C79.7712 349.592 79.78 349.36 79.7835 349.132C79.9623 346.735 79.8203 343.093 79.8203 341.317C79.7151 333.147 78.7471 324.872 72.7554 318.777C73.3639 319.394 72.6923 324.264 72.6923 325.116C72.6923 326.054 72.0487 330.734 72.7554 331.455C75.1402 333.878 76.7446 336.696 77.9125 339.874C78.4683 341.394 78.819 342.979 79.1277 344.563C79.189 344.882 79.2329 345.206 79.282 345.527C78.3719 352.455 75.8977 359.32 71.8401 364.986C71.6665 365.226 71.4894 365.456 71.3105 365.684C62.7306 358.489 46.4948 350.849 45.9231 366.571C45.7723 370.72 44.9201 376.343 46.0424 380.578C46.0634 380.615 46.0757 380.652 46.0845 380.692ZM62.1186 372.322C60.6947 372.857 59.2042 373.273 57.6506 373.573C55.194 374.05 52.6216 374.072 50.2193 373.336C49.4793 373.108 48.8638 372.74 48.35 372.3C51.3959 368.829 56.8019 369.736 62.1186 372.322Z" fill="#C5E5E0"/>
<path d="M412.546 330.123C412.537 330.094 412.528 330.068 412.521 330.038C412.481 329.896 412.439 329.756 412.393 329.618C412.378 329.572 412.358 329.523 412.343 329.477C412.3 329.361 412.258 329.246 412.213 329.135C412.19 329.079 412.165 329.025 412.141 328.974C412.095 328.872 412.051 328.772 411.999 328.676C411.969 328.618 411.939 328.565 411.909 328.509C411.859 328.418 411.808 328.329 411.753 328.243C411.715 328.185 411.681 328.132 411.641 328.076C411.589 327.996 411.531 327.915 411.469 327.838C411.427 327.782 411.385 327.731 411.34 327.678C411.278 327.604 411.215 327.533 411.147 327.462C411.099 327.412 411.048 327.362 410.999 327.313C410.929 327.249 410.857 327.185 410.784 327.121C410.729 327.075 410.673 327.028 410.615 326.982C410.538 326.924 410.459 326.868 410.379 326.814C410.315 326.772 410.254 326.731 410.189 326.691C410.105 326.638 410.014 326.591 409.924 326.545C409.856 326.509 409.789 326.47 409.719 326.438C409.623 326.395 409.523 326.354 409.419 326.312C409.346 326.284 409.276 326.254 409.2 326.226C409.09 326.191 408.976 326.156 408.858 326.123C408.781 326.102 408.709 326.077 408.632 326.06C408.501 326.026 408.359 326.002 408.22 325.979C408.152 325.967 408.085 325.949 408.011 325.939C407.796 325.904 407.573 325.883 407.338 325.865C402.379 325.527 397.743 327.999 394.653 331.695C393.445 330.675 392.417 329.653 391.688 328.757C390.206 326.942 389.287 324.631 388.607 322.419C388.156 320.957 387.899 319.442 387.681 317.927C387.637 317.609 387.607 317.29 387.574 316.971C387.585 316.699 387.6 316.435 387.625 316.193C388.106 311.162 389.233 305.722 391.453 301.019C394.136 302.27 397.168 302.463 400.217 302.193C403.109 301.938 407.161 301.058 409.409 298.77C411.406 297.43 411.538 293.03 411.432 289.367C411.418 288.855 411.39 288.378 411.35 287.94V287.937C411.326 287.638 411.292 287.36 411.259 287.097C411.25 287.032 411.241 286.97 411.234 286.909C411.197 286.662 411.164 286.427 411.124 286.211C411.124 286.206 411.124 286.199 411.122 286.192C411.082 285.969 411.041 285.773 410.999 285.582C410.989 285.531 410.978 285.482 410.968 285.434C410.926 285.257 410.884 285.091 410.843 284.942C410.463 283.237 409.518 281.703 407.857 280.943C403.557 278.978 397.664 284.117 394.93 286.837C393.452 288.306 392.312 290.09 391.407 292.022C389.343 290.982 387.569 289.36 386.198 287.489C384.56 285.25 383.573 282.578 382.884 279.916C382.492 278.41 382.251 276.868 382.061 275.327C382.002 274.866 381.958 274.403 381.921 273.94C381.933 273.791 381.949 273.644 381.959 273.498C382.373 267.948 383.471 262.43 385.011 257.068C385.086 256.806 385.168 256.549 385.246 256.286C385.431 255.653 385.619 255.021 385.817 254.392C386.101 253.499 386.394 252.61 386.697 251.73C389.061 244.87 392.23 238.196 396.459 232.287C399.663 227.81 403.931 223.288 409.423 221.831C410.23 221.617 408.744 213.011 409.423 212.832C401.546 214.92 396.221 222.892 392.495 229.585C387.372 238.784 384.1 249.147 382.526 259.535C382.449 260.043 382.379 260.554 382.317 261.064C382.293 261.229 382.279 261.395 382.258 261.558C382.219 261.902 382.177 262.244 382.144 262.586C382.119 262.821 382.101 263.052 382.08 263.286C382.056 263.561 382.026 263.834 382.005 264.108C381.982 264.39 381.965 264.674 381.944 264.957C381.93 265.178 381.912 265.399 381.898 265.621C381.877 265.949 381.859 266.281 381.845 266.61C381.837 266.784 381.826 266.959 381.817 267.136C381.8 267.508 381.788 267.882 381.775 268.255C381.77 268.383 381.765 268.513 381.763 268.641C381.751 269.051 381.738 269.463 381.73 269.874C381.728 269.965 381.726 270.056 381.723 270.145C381.714 270.582 381.71 271.017 381.705 271.452C381.705 271.504 381.703 271.557 381.703 271.61C381.702 271.722 381.7 271.836 381.7 271.95C381.649 272.581 381.653 274.697 381.7 275.65C381.702 275.942 381.702 276.239 381.705 276.533C381.74 281.042 381.928 285.499 383.138 289.869C384.127 293.45 385.922 296.832 388.756 299.282C388.824 299.341 388.898 299.394 388.966 299.45C388.749 300.381 388.549 301.302 388.37 302.196C388.218 302.936 388.091 303.683 387.972 304.43C387.937 304.651 387.907 304.872 387.874 305.093C387.79 305.677 387.714 306.262 387.65 306.85C387.629 307.038 387.606 307.225 387.583 307.415C387.513 308.093 387.457 308.775 387.408 309.457C387.381 309.82 387.362 310.185 387.339 310.548C387.32 310.886 387.302 311.225 387.288 311.563C387.124 315.3 387.202 319.06 387.346 322.733C387.544 327.729 388.363 333.079 391.313 337.242C391.062 337.826 390.834 338.418 390.624 339.02C390.546 339.248 390.48 339.479 390.406 339.709C390.287 340.081 390.161 340.452 390.057 340.831C389.966 341.156 389.891 341.485 389.808 341.813C389.74 342.099 389.661 342.38 389.598 342.669C389.51 343.069 389.438 343.474 389.361 343.875C389.322 344.089 389.275 344.305 389.24 344.519C389.161 344.989 389.098 345.459 389.037 345.927C389.014 346.078 388.989 346.229 388.972 346.381C388.907 346.911 388.854 347.442 388.807 347.972C388.8 348.061 388.789 348.152 388.782 348.242C388.732 348.824 388.695 349.404 388.667 349.985C388.665 350.025 388.663 350.062 388.661 350.1C388.632 350.718 388.611 351.337 388.6 351.952C388.596 352.117 388.588 352.282 388.586 352.443C388.458 354.142 388.56 356.729 388.56 357.991C388.633 363.79 389.321 369.666 393.575 373.994C393.143 373.554 393.619 370.096 393.619 369.491C393.619 368.824 394.078 365.503 393.575 364.991C391.883 363.271 390.743 361.272 389.915 359.013C389.519 357.937 389.272 356.807 389.052 355.685C389.007 355.457 388.977 355.229 388.942 355C389.587 350.083 391.344 345.208 394.225 341.187C394.346 341.017 394.474 340.854 394.599 340.691C400.692 345.799 412.218 351.224 412.623 340.06C412.739 337.123 413.344 333.128 412.546 330.123ZM404.864 289.753C405.039 289.713 405.215 289.685 405.388 289.665C405.49 289.655 405.59 289.648 405.69 289.643C405.756 289.637 405.83 289.63 405.897 289.629C406.016 289.625 406.133 289.632 406.251 289.637C406.296 289.639 406.344 289.637 406.393 289.643C406.519 289.651 406.644 289.671 406.768 289.69C406.801 289.695 406.835 289.697 406.87 289.701C407.001 289.727 407.129 289.757 407.257 289.793C407.282 289.799 407.306 289.802 407.331 289.809C407.462 289.848 407.591 289.893 407.72 289.943C407.738 289.95 407.755 289.957 407.773 289.962C407.903 290.014 408.031 290.078 408.153 290.142C408.167 290.149 408.181 290.155 408.195 290.162C408.322 290.228 408.443 290.3 408.56 290.381C408.583 290.395 408.608 290.407 408.63 290.423C405.737 292.72 401.366 293.43 397.529 293.323C399.787 291.596 402.405 290.274 404.864 289.753ZM401.141 335.983C402.151 335.602 403.208 335.308 404.311 335.095C406.056 334.755 407.883 334.74 409.588 335.264C410.112 335.423 410.55 335.685 410.913 335.999C408.751 338.462 404.916 337.817 401.141 335.983Z" fill="#F0C694"/>
<path d="M570.176 347.203C570.166 347.161 570.153 347.124 570.143 347.086C570.092 346.882 570.039 346.682 569.98 346.486C569.96 346.418 569.938 346.355 569.915 346.29C569.86 346.125 569.808 345.962 569.743 345.8C569.715 345.722 569.68 345.646 569.647 345.571C569.59 345.427 569.529 345.283 569.462 345.145C569.422 345.062 569.382 344.985 569.341 344.906C569.273 344.776 569.201 344.648 569.131 344.524C569.084 344.443 569.031 344.364 568.98 344.285C568.908 344.17 568.828 344.054 568.75 343.942C568.693 343.863 568.633 343.789 568.572 343.712C568.487 343.605 568.4 343.503 568.31 343.402C568.245 343.328 568.177 343.256 568.107 343.186C568.014 343.088 567.916 342.997 567.812 342.907C567.737 342.839 567.66 342.769 567.581 342.706C567.474 342.62 567.363 342.539 567.251 342.46C567.167 342.399 567.083 342.337 566.992 342.279C566.876 342.202 566.75 342.132 566.627 342.062C566.532 342.009 566.438 341.953 566.339 341.906C566.208 341.839 566.066 341.778 565.924 341.718C565.82 341.678 565.724 341.631 565.617 341.59C565.464 341.531 565.305 341.48 565.144 341.431C565.035 341.399 564.933 341.362 564.824 341.333C564.64 341.28 564.446 341.24 564.249 341.201C564.151 341.178 564.058 341.157 563.956 341.136C563.655 341.082 563.339 341.038 563.009 341.008C556.039 340.342 549.42 343.642 544.924 348.729C543.263 347.244 541.853 345.767 540.861 344.475C538.844 341.86 537.64 338.578 536.768 335.434C536.193 333.358 535.886 331.21 535.639 329.074C535.586 328.627 535.562 328.174 535.527 327.724C535.553 327.343 535.585 326.971 535.628 326.629C536.498 319.568 538.295 311.949 541.601 305.415C545.327 307.276 549.593 307.665 553.896 307.404C557.982 307.158 563.718 306.071 566.972 302.941C569.836 301.128 570.19 294.943 570.187 289.781C570.185 289.057 570.162 288.385 570.125 287.766V287.763C570.101 287.342 570.064 286.949 570.027 286.574C570.02 286.483 570.008 286.395 570.002 286.306C569.962 285.958 569.922 285.625 569.874 285.32C569.873 285.311 569.873 285.303 569.873 285.296C569.825 284.978 569.775 284.698 569.724 284.431C569.708 284.357 569.697 284.285 569.683 284.219C569.631 283.966 569.582 283.73 569.531 283.523C569.059 281.106 567.793 278.911 565.48 277.776C559.501 274.846 551.005 281.853 547.051 285.58C544.913 287.593 543.24 290.058 541.892 292.741C539.023 291.201 536.589 288.848 534.731 286.158C532.511 282.942 531.224 279.142 530.352 275.365C529.865 273.231 529.582 271.052 529.374 268.874C529.31 268.223 529.267 267.568 529.23 266.913C529.253 266.705 529.281 266.5 529.303 266.294C530.101 258.493 531.858 250.769 534.234 243.274C534.348 242.911 534.478 242.55 534.596 242.187C534.883 241.302 535.171 240.416 535.478 239.541C535.907 238.294 536.356 237.055 536.819 235.822C540.408 226.255 545.125 216.98 551.31 208.823C555.994 202.644 562.178 196.44 569.967 194.602C571.112 194.332 569.35 182.156 570.316 181.929C559.145 184.565 551.34 195.586 545.836 204.865C538.271 217.62 533.259 232.087 530.647 246.652C530.515 247.364 530.398 248.077 530.291 248.793C530.252 249.024 530.224 249.259 530.189 249.491C530.122 249.971 530.05 250.451 529.987 250.932C529.945 251.262 529.91 251.586 529.872 251.916C529.826 252.301 529.775 252.687 529.735 253.068C529.693 253.468 529.654 253.866 529.614 254.264C529.586 254.576 529.551 254.886 529.524 255.2C529.482 255.665 529.446 256.126 529.41 256.587C529.391 256.836 529.368 257.081 529.351 257.329C529.312 257.851 529.277 258.377 529.247 258.902C529.235 259.081 529.219 259.263 529.211 259.443C529.177 260.024 529.146 260.603 529.118 261.179C529.111 261.307 529.105 261.435 529.1 261.562C529.07 262.174 529.046 262.789 529.023 263.401C529.021 263.473 529.018 263.548 529.014 263.622C529.014 263.622 529.014 263.622 529.014 263.626C529.009 263.783 529 263.943 528.997 264.103C528.902 264.988 528.826 267.969 528.855 269.312C528.848 269.726 528.835 270.142 528.828 270.557C528.702 276.908 528.797 283.188 530.329 289.39C531.588 294.468 533.985 299.303 537.88 302.862C537.973 302.946 538.073 303.025 538.167 303.108C537.826 304.409 537.512 305.698 537.222 306.951C536.982 307.988 536.775 309.033 536.579 310.083C536.519 310.392 536.467 310.702 536.416 311.013C536.274 311.831 536.147 312.656 536.03 313.48C535.991 313.743 535.953 314.004 535.916 314.271C535.793 315.223 535.686 316.178 535.592 317.141C535.542 317.651 535.499 318.163 535.455 318.675C535.414 319.151 535.378 319.626 535.343 320.101C534.964 325.356 534.932 330.652 534.992 335.832C535.08 342.874 536.026 350.437 540.016 356.415C539.642 357.228 539.297 358.054 538.978 358.889C538.862 359.204 538.762 359.529 538.648 359.85C538.464 360.37 538.274 360.888 538.11 361.419C537.968 361.87 537.85 362.331 537.726 362.789C537.615 363.188 537.494 363.583 537.396 363.984C537.257 364.546 537.14 365.112 537.019 365.678C536.954 365.978 536.882 366.278 536.824 366.58C536.691 367.235 536.584 367.895 536.479 368.558C536.442 368.768 536.405 368.98 536.37 369.192C536.26 369.932 536.165 370.679 536.079 371.426C536.067 371.553 536.047 371.679 536.033 371.803C535.942 372.622 535.869 373.438 535.806 374.253C535.8 374.306 535.797 374.363 535.791 374.414C535.723 375.286 535.67 376.154 535.632 377.017V377.02C535.621 377.25 535.602 377.481 535.593 377.709C535.351 380.099 535.392 383.743 535.343 385.521C535.225 393.689 535.965 401.988 541.788 408.248C541.198 407.612 542.001 402.763 542.022 401.913C542.048 400.971 542.821 396.314 542.134 395.574C539.818 393.084 538.287 390.226 537.21 387.017C536.696 385.482 536.389 383.887 536.125 382.295C536.07 381.974 536.035 381.649 535.997 381.325C537.096 374.427 539.756 367.628 543.966 362.078C544.145 361.843 544.331 361.619 544.515 361.394C552.897 368.819 568.915 376.903 569.918 361.202C570.173 357.065 571.181 351.464 570.176 347.203ZM560.912 290.062C561.161 290.016 561.412 289.983 561.652 289.962C561.798 289.949 561.938 289.948 562.078 289.942C562.177 289.937 562.276 289.93 562.373 289.93C562.541 289.93 562.706 289.944 562.869 289.958C562.934 289.962 563.002 289.962 563.069 289.969C563.248 289.988 563.423 290.016 563.599 290.051C563.642 290.06 563.69 290.063 563.737 290.074C563.921 290.112 564.102 290.162 564.281 290.216C564.316 290.225 564.349 290.233 564.383 290.244C564.567 290.302 564.747 290.374 564.924 290.449C564.949 290.458 564.975 290.467 564.998 290.477C565.18 290.56 565.354 290.647 565.529 290.744C565.547 290.754 565.566 290.761 565.587 290.773C565.761 290.872 565.929 290.982 566.092 291.1C566.125 291.121 566.157 291.138 566.187 291.161C562.026 294.284 555.843 295.115 550.447 294.817C553.695 292.464 557.435 290.702 560.912 290.062ZM553.889 355.01C555.326 354.517 556.828 354.144 558.391 353.882C560.86 353.474 563.432 353.521 565.812 354.326C566.543 354.573 567.151 354.957 567.653 355.411C564.51 358.798 559.134 357.742 553.889 355.01Z" fill="#F0C694"/>
<path d="M469.504 321.15C469.461 317.576 469.288 313.985 469.058 310.413C469.051 310.299 469.044 310.187 469.035 310.073C468.92 308.297 468.79 306.526 468.657 304.765C468.011 296.399 466.258 288.016 462.325 280.575C463.471 278.226 464.318 275.716 464.944 273.184C467.634 262.253 465.702 249.352 464.794 238.332C463.978 228.447 460.724 218.829 456.957 209.721C458.016 212.28 457.187 217.393 457.306 220.127C457.431 222.995 456.741 227.817 457.86 230.528C460.275 236.366 462.344 242.301 463.878 248.433C464.061 249.165 464.225 249.899 464.383 250.636C464.19 251.681 463.957 252.719 463.703 253.75C462.165 259.998 458.458 265.288 453.643 269.444C453.387 269.663 453.042 269.937 452.635 270.238C452.517 270.321 449.014 268.252 448.549 268.083C448.467 268.052 448.377 268.033 448.291 268.003C447.506 267.663 446.68 267.468 445.821 267.468C440.877 267.468 436.872 273.549 436.872 281.051C436.872 288.549 440.877 294.632 445.821 294.632C446.52 294.632 447.202 294.495 447.856 294.263C448.751 294.083 449.566 293.811 450.122 293.537C450.513 293.343 453.499 291.107 453.624 291.167C454.681 291.679 455.544 292.173 456.047 292.526C462.251 296.851 465.356 304.87 467.317 311.851C467.676 313.131 467.967 314.432 468.23 315.739C467.878 318.3 467.271 320.826 466.582 323.312C463.826 333.244 457.776 342.029 449.51 348.138C448.568 348.836 449.812 357.453 449.859 358.547C449.899 359.526 451.162 368.395 450.413 368.945C464.864 358.268 468.916 342.997 469.456 326.872C469.514 325.115 469.528 323.345 469.511 321.571C469.507 321.43 469.505 321.292 469.504 321.15Z" fill="#EAB948"/>
<path d="M124.537 269.945C124.58 273.521 124.752 277.112 124.984 280.684C124.991 280.796 124.998 280.91 125.007 281.024C125.122 282.8 125.252 284.572 125.385 286.332C126.031 294.696 127.784 303.08 131.717 310.523C130.57 312.873 129.722 315.382 129.099 317.915C126.409 328.846 128.342 341.748 129.25 352.766C130.065 362.652 133.318 372.266 137.085 381.378C136.027 378.819 136.853 373.706 136.736 370.969C136.611 368.1 137.299 363.28 136.182 360.569C133.769 354.733 131.698 348.794 130.164 342.662C129.983 341.931 129.818 341.196 129.659 340.459C129.85 339.414 130.085 338.376 130.341 337.343C131.879 331.099 135.585 325.807 140.401 321.653C140.657 321.436 141.002 321.159 141.409 320.86C141.523 320.773 145.03 322.845 145.495 323.012C145.579 323.044 145.666 323.063 145.751 323.091C146.536 323.433 147.362 323.626 148.221 323.626C153.164 323.626 157.169 317.546 157.169 310.045C157.169 302.545 153.164 296.464 148.221 296.464C147.52 296.464 146.84 296.599 146.184 296.83C145.288 297.013 144.471 297.286 143.918 297.558C143.527 297.753 140.543 299.987 140.418 299.929C139.359 299.417 138.496 298.922 137.995 298.572C131.791 294.244 128.684 286.225 126.723 279.244C126.364 277.964 126.073 276.663 125.81 275.357C126.164 272.795 126.769 270.272 127.46 267.783C130.216 257.85 136.264 249.065 144.53 242.957C145.474 242.263 144.232 233.644 144.185 232.55C144.143 231.572 142.882 222.702 143.629 222.148C129.178 232.827 125.128 248.1 124.587 264.222C124.528 265.981 124.516 267.748 124.533 269.523C124.533 269.665 124.535 269.805 124.537 269.945Z" fill="#F0C694"/>
<path d="M979.444 229.834C979.336 231.589 979.273 233.357 979.241 235.129C979.239 235.27 979.236 235.408 979.232 235.548C979.178 239.124 979.246 242.719 979.378 246.296C979.383 246.408 979.387 246.522 979.392 246.636C979.457 248.414 979.537 250.189 979.623 251.949C980.032 260.331 981.549 268.76 985.271 276.309C984.061 278.627 983.141 281.112 982.445 283.624C979.451 294.477 981.017 307.427 981.617 318.469C982.154 328.371 985.138 338.076 988.645 347.289C987.658 344.701 988.629 339.616 988.587 336.875C988.545 334.005 989.368 329.207 988.326 326.465C986.078 320.564 984.174 314.569 982.815 308.396C982.653 307.66 982.508 306.92 982.373 306.182C982.592 305.142 982.857 304.111 983.139 303.085C984.85 296.885 988.706 291.699 993.637 287.68C993.899 287.47 994.251 287.205 994.667 286.916C994.786 286.835 998.233 289.004 998.689 289.183C999.892 289.657 1001.22 289.914 1002.5 289.604C1005.25 288.924 1006.4 286.071 1006.57 283.498C1006.78 280.305 1006.09 277.108 1005.88 273.931C1005.69 271.138 1005.65 268.346 1005.55 265.548C1005.4 261.869 999.883 262.756 997.833 263.698C997.437 263.88 994.39 266.03 994.267 265.968C993.222 265.427 992.375 264.909 991.884 264.543C985.801 260.043 982.925 251.939 981.161 244.907C980.837 243.618 980.581 242.308 980.356 240.995C980.782 238.445 981.457 235.939 982.218 233.472C985.252 223.619 991.547 215.008 999.98 209.137C1000.94 208.464 999.943 199.819 999.925 198.723C999.911 197.743 998.901 188.844 999.664 188.311C984.915 198.579 980.437 213.729 979.444 229.834Z" fill="#E48A8F"/>
<path d="M339.082 356.692C333.226 337.869 329.049 318.474 328.64 298.438C328.218 277.652 334.255 259.621 340.007 240.812C351.048 204.72 344.055 166.762 334.997 130.239C334.395 127.816 328.777 124.774 329.617 128.161C334.502 147.85 338.693 167.812 340.15 188.239C341.641 209.14 337.874 226.907 331.839 245.906C326.466 262.805 322.827 279.262 323.204 297.849C323.599 317.225 328.049 336.444 333.697 354.612C334.43 356.965 340.077 359.909 339.082 356.692Z" fill="#F0C694"/>
<path d="M681.935 184.646C681.489 182.221 676.609 179.226 677.23 182.608C680.848 202.277 683.839 222.236 684.381 242.673C684.935 263.592 680.934 281.41 674.87 300.481C669.474 317.439 665.636 333.947 665.283 352.555C664.92 371.951 668.17 391.159 672.522 409.304C673.085 411.65 677.995 414.556 677.227 411.344C672.717 392.544 669.718 373.157 670.092 353.101C670.483 332.29 676.509 314.19 682.319 295.314C693.459 259.091 688.644 221.143 681.935 184.646Z" fill="#F0C694"/>
<path d="M1039.65 163.212C1039.2 160.787 1034.32 157.792 1034.94 161.175C1038.56 180.844 1041.55 200.803 1042.09 221.24C1042.65 242.159 1038.65 259.977 1032.58 279.048C1027.19 296.006 1023.35 312.514 1023 331.122C1022.63 350.517 1025.88 369.725 1030.23 387.871C1030.8 390.217 1035.71 393.123 1034.94 389.91C1030.43 371.111 1027.43 351.724 1027.8 331.667C1028.2 310.857 1034.22 292.759 1040.03 273.88C1051.17 237.658 1046.36 199.708 1039.65 163.212Z" fill="#EAB948"/>
<path d="M185.217 256.726C184.135 234.984 183.032 213.261 183.797 191.47C183.87 189.34 179.09 185.652 179.034 187.241C178.306 208.078 179.265 228.852 180.316 249.638C180.77 258.682 181.073 267.422 179.912 276.407C178.56 286.818 174.897 296.464 171.557 306.008C165.327 323.817 160.741 340.64 160.968 360.418C161.194 380.215 165.783 399.491 170.038 418.343C170.438 420.12 175.192 423.988 174.652 421.598C170.224 401.997 165.933 382.473 165.698 361.914C165.469 341.857 171.469 324.327 177.724 306.382C183.479 289.87 186.127 274.867 185.217 256.726Z" fill="#E48A8F"/>
<path d="M361.285 416.537C358.634 393.84 354.056 371.413 354.468 348.47C354.894 325.162 360.021 302.496 364.626 279.763C368.438 260.962 369.383 239.401 366.674 215.201C364.095 192.195 359.621 169.457 358.908 146.263C358.839 144.061 353.391 142.135 353.354 140.973C354.014 162.424 357.714 183.546 360.47 204.79C363.672 229.501 363.426 252.994 358.475 277.428C353.852 300.255 349.286 322.77 348.862 346.153C348.467 368.135 353.209 389.874 355.751 411.626C355.979 413.56 361.233 416.064 361.285 416.537Z" fill="#C5E5E0"/>
<path d="M886.385 430.116C882.987 407.517 877.677 385.253 877.337 362.308C876.994 339 881.376 316.178 885.233 293.305C888.425 274.389 888.663 252.808 885.163 228.709C881.828 205.802 876.611 183.223 875.133 160.065C874.993 157.866 869.481 156.118 869.408 154.958C870.772 176.378 875.163 197.367 878.617 218.509C882.629 243.101 883.154 266.591 879.007 291.175C875.137 314.139 871.312 336.794 871.656 360.176C871.982 382.161 877.435 403.733 880.69 425.385C880.981 427.312 886.313 429.645 886.385 430.116Z" fill="#F0C694"/>
<path d="M510.714 445.993C502.629 427.253 494.733 408.575 491.862 388.213C489.059 368.351 494.505 349.995 500.223 331.187C505.484 313.883 506.971 298.573 503.55 280.719C499.452 259.321 495.333 237.947 493.583 216.205C493.409 214.077 486.867 211.185 486.995 212.772C488.668 233.562 492.49 254.018 496.427 274.475C498.135 283.374 499.615 291.996 499.259 301.098C498.843 311.644 495.387 321.8 492.329 331.808C486.625 350.474 482.895 367.9 485.655 387.487C488.422 407.093 496.669 425.48 504.44 443.503C505.173 445.2 511.702 448.278 510.714 445.993Z" fill="#E48A8F"/>
<path d="M603.658 403.877C599.968 381.327 594.369 359.132 593.733 336.195C593.091 312.894 597.173 290.016 600.735 267.098C603.682 248.139 603.638 226.556 599.825 202.507C596.196 179.643 590.685 157.135 588.912 133.997C588.742 131.803 583.212 130.127 583.122 128.966C584.76 150.368 589.424 171.3 593.152 192.394C597.48 216.931 598.313 240.411 594.483 265.046C590.91 288.059 587.38 310.76 588.025 334.138C588.635 356.116 594.369 377.614 597.903 399.226C598.22 401.147 603.582 403.405 603.658 403.877Z" fill="#C5E5E0"/>
<path d="M232.576 247.662C232.457 243.613 227.049 245.919 227.156 249.552C227.962 277.612 236.137 303.429 235.229 331.908C234.44 356.625 226.207 379.189 215.682 399.539C213.634 403.497 218.935 403.791 220.492 400.786C230.754 380.938 238.319 359.711 240.312 335.871C242.879 305.246 233.435 277.628 232.576 247.662Z" fill="#EAB948"/>
<path d="M804.747 368.149C803.934 348.129 808.472 330.259 813.208 311.959C817.564 295.124 819.342 279.975 818.016 261.909C816.427 240.255 814.83 218.623 814.805 196.81C814.804 194.676 810.65 191.277 810.65 192.869C810.674 213.726 812.124 234.419 813.65 255.123C814.316 264.129 814.84 272.842 814.132 281.885C813.311 292.362 810.509 302.219 807.979 311.952C803.257 330.113 799.899 347.193 800.7 366.935C801.501 386.699 805.973 405.681 810.152 424.258C810.543 426.008 814.679 429.587 814.151 427.233C809.804 407.917 805.577 388.674 804.747 368.149Z" fill="#EAB948"/>
<path d="M761.798 209.495C766.272 237.374 780.535 262.377 782.72 290.824C784.613 315.515 776.083 338.713 764.16 359.911C761.842 364.033 769.114 363.858 770.878 360.73C782.5 340.056 790.277 318.249 790.135 294.328C789.96 263.596 773.75 236.912 768.974 207.138C768.323 203.113 761.215 205.884 761.798 209.495Z" fill="#C5E5E0"/>
<path d="M915.629 112.461C921.962 131.394 926.185 150.87 925.692 170.928C925.178 191.734 916.777 209.679 908.692 228.402C893.168 264.336 899.959 302.435 909.391 339.129C910.014 341.568 916.844 344.7 915.971 341.298C910.885 321.518 906.674 301.472 905.883 281.009C905.076 260.068 910.642 242.349 919.094 223.436C926.613 206.616 931.957 190.207 932.415 171.604C932.894 152.204 928.322 132.904 922.215 114.627C921.421 112.265 914.552 109.224 915.629 112.461Z" fill="#C5E5E0"/>
<path d="M879.666 140.384C880.25 82.5756 842.478 49.7201 795.469 49.2343C748.477 48.7644 710.043 80.8554 709.447 138.667C708.881 194.485 743.755 258.411 788.459 263.201L778.316 283.728H807.816L797.742 263.342C842.716 259.826 879.096 196.393 879.666 140.384Z" fill="#E48A8F"/>
<path d="M807.814 283.726L797.74 263.34C842.716 259.826 879.095 196.393 879.664 140.384C879.675 139.314 879.645 138.274 879.629 137.22C860.342 167.525 793.351 258.685 719.972 195.276C733.504 230.848 758.818 260.028 788.459 263.202L778.317 283.728L807.814 283.726Z" fill="#DE5E6C"/>
<path opacity="0.7" d="M796.59 129.565C783.964 152.956 759.88 164.449 742.794 155.227C725.711 146.009 722.094 119.568 734.721 96.1742C747.344 72.7841 771.43 61.2898 788.515 70.5133C805.599 79.7315 809.217 106.173 796.59 129.565Z" fill="white"/>
<path d="M156.482 169.818C144.472 117.632 103.333 96.2353 60.8947 105.99C18.4737 115.759 -9.18094 152.993 2.81484 205.179C14.4143 255.57 59.6848 305.578 100.978 300.197L96.2929 320.88L122.859 314.483L109.365 298.307C149.109 285.39 168.111 220.375 156.482 169.818Z" fill="#84E8FC"/>
<path d="M122.859 314.485L109.365 298.309C149.109 285.39 168.112 220.375 156.482 169.818C156.258 168.852 156.007 167.919 155.765 166.979C144.967 198.448 104.408 295.066 24.5743 253.88C44.4749 282.979 73.6008 303.764 100.98 300.199L96.2947 320.882L122.859 314.485Z" fill="#79D4DE"/>
<path opacity="0.7" d="M79.3224 178.086C73.0255 201.89 53.8263 217.459 36.4402 212.865C19.0559 208.266 10.0674 185.238 16.3608 161.434C22.6629 137.631 41.8586 122.061 59.2464 126.659C76.6308 131.256 85.6193 154.284 79.3224 178.086Z" fill="white"/>
<path d="M322.771 138.56C319.643 69.959 272.675 33.4894 216.887 36.018C161.12 38.5658 117.654 79.1667 120.768 147.775C123.788 214.015 169.378 287.53 222.716 290.258L212.039 315.274L247.028 313.324L233.731 289.804C286.838 282.667 325.798 205.025 322.771 138.56Z" fill="#EAB948"/>
<path d="M247.028 313.325L233.731 289.806C286.84 282.667 325.798 205.023 322.771 138.558C322.713 137.29 322.61 136.056 322.521 134.811C301.649 172.026 228.22 284.575 136.994 214.217C155.395 255.51 187.348 288.447 222.716 290.258L212.039 315.274L247.028 313.325Z" fill="#E0A637"/>
<path opacity="0.7" d="M223.526 131.218C210.094 159.797 182.289 175.017 161.415 165.208C140.543 155.403 134.506 124.285 147.934 95.7024C161.364 67.1237 189.17 51.9049 210.045 61.7088C230.915 71.518 236.953 102.641 223.526 131.218Z" fill="white"/>
<path d="M1154.5 200.573C1167.18 145.699 1138.14 106.515 1093.51 96.1935C1048.91 85.8899 1005.61 108.358 992.913 163.239C980.665 216.228 1000.44 284.363 1041.96 298.296L1028 315.698L1056.07 321.886L1050.77 300.373C1094.29 306.464 1142.21 253.741 1154.5 200.573Z" fill="#EAB948"/>
<path d="M1056.07 321.887L1050.77 300.373C1094.29 306.464 1142.21 253.74 1154.5 200.571C1154.73 199.558 1154.93 198.558 1155.13 197.555C1130.43 222.343 1047.57 295.023 991.052 219.299C996.464 255.984 1014.43 289.055 1041.97 298.295L1028.01 315.697L1056.07 321.887Z" fill="#E0A637"/>
<path opacity="0.7" d="M1077.73 172.859C1060.81 192.463 1035.49 198.343 1021.17 185.986C1006.84 173.631 1008.95 147.719 1025.87 128.108C1042.79 108.498 1068.11 102.62 1082.44 114.979C1096.76 127.333 1094.65 153.248 1077.73 172.859Z" fill="white"/>
<path d="M1018.21 133.289C1018.56 68.6495 976.162 32.1028 923.593 31.8029C871.046 31.5206 828.234 67.6026 827.867 132.246C827.522 194.666 866.846 265.965 916.858 271.089L905.618 294.097L938.609 293.946L927.237 271.196C977.507 267.035 1017.86 195.916 1018.21 133.289Z" fill="#C5E5E0"/>
<path d="M938.608 293.944L927.237 271.194C977.507 267.035 1017.86 195.914 1018.21 133.287C1018.22 132.093 1018.18 130.925 1018.15 129.75C996.744 163.737 922.309 266.016 839.924 195.491C855.241 235.196 883.695 267.692 916.858 271.089L905.618 294.097L938.608 293.944Z" fill="#92D1C5"/>
<path opacity="0.7" d="M925.257 121.62C911.263 147.842 884.393 160.814 865.24 150.591C846.086 140.368 841.908 110.825 855.906 84.5996C869.899 58.3776 896.775 45.4051 915.927 55.6263C935.079 65.851 939.259 95.396 925.257 121.62Z" fill="white"/>
<path d="M741.931 161.421C751.105 100.651 716.204 60.4657 666.783 52.994C617.381 45.5433 572.159 73.6381 562.976 134.415C554.119 193.096 581.374 265.565 627.727 277.224L614.007 297.334L645.065 301.702L637.478 278.745C685.349 281.703 733.041 220.3 741.931 161.421Z" fill="#F0C694"/>
<path d="M645.064 301.702L637.476 278.745C685.35 281.705 733.041 220.3 741.931 161.421C742.099 160.297 742.226 159.195 742.364 158.089C717.573 187.136 633.548 273.193 565.677 195.568C574.656 235.022 596.991 269.49 627.727 277.223L614.007 297.332L645.064 301.702Z" fill="#E39851"/>
<path opacity="0.7" d="M656.069 137.732C639.314 160.488 612.255 169.022 595.636 156.784C579.012 144.547 579.123 116.18 595.876 93.4159C612.632 70.6553 639.689 62.1245 656.312 74.3623C672.934 86.6 672.823 114.972 656.069 137.732Z" fill="white"/>
<path d="M485.325 111.621C486.041 40.8351 439.79 0.600704 382.224 0.00626341C324.681 -0.570642 277.616 38.7256 276.887 109.517C276.193 177.869 318.899 256.149 373.641 262.013L361.22 287.149H397.341L385.009 262.183C440.081 257.883 484.627 180.203 485.325 111.621Z" fill="#E48A8F"/>
<path d="M397.339 287.151L385.007 262.184C440.081 257.885 484.628 180.204 485.325 111.621C485.338 110.311 485.301 109.036 485.283 107.749C461.665 144.853 379.629 256.48 289.772 178.836C306.344 222.394 337.345 258.127 373.641 262.014L361.221 287.151H397.339Z" fill="#DE5E6C"/>
<path opacity="0.7" d="M383.599 98.3731C368.136 127.015 338.646 141.085 317.721 129.796C296.802 118.505 292.372 86.1301 307.835 57.4847C323.292 28.8376 352.788 14.7656 373.709 26.0583C394.63 37.3491 399.058 69.7278 383.599 98.3731Z" fill="white"/>
<path d="M605.727 129.738C602.683 64.2391 557.812 29.4582 504.547 31.9201C451.309 34.3979 409.842 73.1996 412.874 138.702C415.811 201.943 459.4 272.095 510.325 274.652L500.148 298.547L533.554 296.655L520.841 274.215C571.546 267.354 608.671 193.192 605.727 129.738Z" fill="#EAB948"/>
<path d="M533.554 296.655L520.841 274.215C571.546 267.354 608.673 193.191 605.727 129.738C605.673 128.528 605.571 127.345 605.485 126.156C585.588 161.706 515.574 269.227 428.417 202.127C446.019 241.54 476.554 272.96 510.325 274.654L500.148 298.549L533.554 296.655Z" fill="#E0A637"/>
<path opacity="0.7" d="M510.963 122.81C498.166 150.107 471.634 164.661 451.693 155.315C431.755 145.972 425.971 116.266 438.766 88.9655C451.565 61.6668 478.103 47.1127 498.038 56.4571C517.974 65.8051 523.762 95.5131 510.963 122.81Z" fill="white"/>
</g>
</svg>
