<svg width="1891" height="512" viewBox="0 0 1891 512" fill="none" xmlns="http://www.w3.org/2000/svg">
<g opacity="0.1">
<path d="M1479.88 307.894C1444.92 259.131 1383.13 252.901 1351.29 275.728C1319.45 298.555 1305.52 359.069 1340.48 407.832C1383.69 468.097 1464.69 469.109 1481.86 461.488C1478.04 466.774 1478.24 477.649 1481.61 480.136C1483.48 481.508 1487.52 474.381 1492.45 470.687C1497.65 466.794 1503.69 466.239 1503.63 464.355C1503.52 461.045 1491.9 456.679 1485.52 458.777C1498.31 444.353 1522.85 367.831 1479.88 307.894Z" fill="#71BCFF"/>
<path d="M532.062 424.01C567.576 388.421 564.25 336.491 541.013 313.302C517.775 290.113 465.839 286.897 430.324 322.486C386.432 366.47 396.706 433.57 405.363 446.719C400.469 444.286 391.508 445.946 389.914 449.075C389.034 450.802 395.482 453.168 399.211 456.736C403.143 460.497 404.429 465.415 405.979 465.106C408.7 464.565 410.716 454.362 408.106 449.373C421.785 457.97 488.408 467.755 532.062 424.01Z" fill="#B45B7E"/>
<path d="M973.404 399.681C991.498 360.126 973.172 319.008 947.345 307.193C921.518 295.378 878.425 308.401 860.331 347.956C837.969 396.841 866.497 448.172 877.476 456.231C872.774 455.73 866.005 459.774 865.655 462.791C865.461 464.458 871.403 464.436 875.502 466.207C879.823 468.075 882.347 471.676 883.51 470.959C885.555 469.701 884.119 460.819 880.5 457.558C894.18 460.414 951.163 448.3 973.404 399.681Z" fill="#FFB938"/>
<path d="M1276.54 289.859C1323.55 200.234 1286.14 102.4 1227.62 71.7056C1169.1 41.0117 1067.34 65.8518 1020.33 155.478C962.235 266.243 1022.07 389.086 1046.56 409.19C1035.7 407.435 1019.47 415.982 1018.27 422.947C1017.61 426.793 1031.42 427.489 1040.72 432.12C1050.52 437.003 1055.93 445.686 1058.73 444.168C1063.64 441.502 1061.42 420.685 1053.42 412.654C1084.85 421.008 1218.76 400.021 1276.54 289.859Z" fill="#FF1558"/>
<path d="M826.421 142.529C793.769 57.0825 705.085 23.9575 649.294 45.2775C593.503 66.5975 549.512 150.425 582.164 235.87C622.518 341.47 741.558 374.348 769.83 369.764C762.147 376.078 758.236 392.191 762.243 397.164C764.457 399.909 773.182 390.966 781.881 387.43C791.051 383.704 800.172 385.226 800.814 382.424C801.941 377.504 786.502 366.564 776.277 367.184C800.728 350.875 866.556 247.554 826.421 142.529Z" fill="#4800B1"/>
<path d="M530.586 107.924C538.315 66.2606 511.259 31.7466 484.055 26.6996C456.852 21.6536 419.216 44.1655 411.487 85.8285C401.935 137.319 441.051 179.066 453.334 184.082C448.772 184.723 443.334 190.148 443.717 193.082C443.929 194.702 449.538 193.275 453.831 193.978C458.356 194.72 461.594 197.525 462.524 196.572C464.158 194.9 460.697 186.846 456.505 184.621C470.11 184.079 521.086 159.135 530.586 107.924Z" fill="#FFB938"/>
<path d="M1797.81 144.261C1716.59 62.6968 1597.68 69.9318 1544.43 122.962C1491.17 175.992 1483.43 294.867 1564.65 376.432C1665.02 477.236 1818.71 454.202 1848.87 434.48C1843.27 445.667 1847.01 466.195 1854.16 469.864C1858.1 471.89 1863.57 457.147 1871.76 448.634C1880.4 439.662 1891.67 436.751 1890.97 433.201C1889.76 426.967 1866.41 422.278 1854.97 428.217C1874.75 396.968 1897.64 244.516 1797.81 144.261Z" fill="#FFB938"/>
<path d="M1456.34 126.925C1471.09 80.924 1445.47 37.991 1415.43 28.361C1385.4 18.731 1339.59 38.761 1324.84 84.762C1306.61 141.613 1344.82 194.465 1357.99 201.909C1352.74 201.975 1345.81 207.326 1345.82 210.699C1345.82 212.561 1352.37 211.756 1357.13 213.169C1362.14 214.661 1365.39 218.3 1366.58 217.356C1368.67 215.7 1365.92 206.094 1361.5 202.973C1376.96 204.324 1438.21 183.467 1456.34 126.925Z" fill="#4800B1"/>
<path d="M349.768 235.392C370.581 114.337 290.842 15.3315 211.8 1.7415C132.758 -11.8485 24.5303 54.8395 3.71628 175.893C-22.0067 325.503 92.9633 445.015 128.757 459.085C115.558 461.115 100.004 477.047 101.226 485.535C101.903 490.223 118.106 485.87 130.576 487.744C143.72 489.721 153.212 497.728 155.872 494.931C160.544 490.02 150.206 466.81 137.971 460.522C177.382 458.433 324.184 384.188 349.768 235.392Z" fill="#FF1558"/>
</g>
</svg>
