<svg width="100" height="80" viewBox="0 0 100 80" fill="none" xmlns="http://www.w3.org/2000/svg">
<path d="M15 35V40V65C15 67.7656 17.2344 70 20 70H25C27.7656 70 30 67.7656 30 65V51.2188C31.5469 52.25 33.2188 53.0938 35 53.7344V57.5156C35 58.8906 36.125 60.0156 37.5 60.0156C38.875 60.0156 40 58.8906 40 57.5156V54.875C40.8281 54.9688 41.6562 55.0156 42.5 55.0156C43.3438 55.0156 44.1719 54.9688 45 54.875V57.5156C45 58.8906 46.125 60.0156 47.5 60.0156C48.875 60.0156 50 58.8906 50 57.5156V53.7344C51.7812 53.1094 53.4531 52.2656 55 51.2188V65C55 67.7656 57.2344 70 60 70H65C67.7656 70 70 67.7656 70 65V40L75 45V52.7344C75 54.2188 75.4375 55.6562 76.2656 56.8906L82.8125 66.7188C84.1875 68.7656 86.4844 70 88.9531 70C92.4688 70 95.5 67.5156 96.1875 64.0625L99.3594 48.1875C99.7656 46.1562 99.3125 44.0469 98.1094 42.3594L97.5 41.5V28.75C97.5 26.6719 95.8281 25 93.75 25C91.6719 25 90 26.6719 90 28.75V31L81.7344 19.4219C77.5 13.5156 70.6875 10 63.4219 10H42.5H40H30H22.5C12.1406 10 3.75 18.3906 3.75 28.75V37.1875C1.46875 39.0312 0 41.8438 0 45V47.75C0 49 1 50 2.25 50C7.21875 50 11.25 45.9688 11.25 41V40V35V28.75C11.25 24.9531 13.1406 21.5938 16.0156 19.5469C15.3594 21.2344 15 23.0781 15 25V35ZM87.5 52.5C87.5 51.837 87.7634 51.2011 88.2322 50.7322C88.7011 50.2634 89.337 50 90 50C90.663 50 91.2989 50.2634 91.7678 50.7322C92.2366 51.2011 92.5 51.837 92.5 52.5C92.5 53.163 92.2366 53.7989 91.7678 54.2678C91.2989 54.7366 90.663 55 90 55C89.337 55 88.7011 54.7366 88.2322 54.2678C87.7634 53.7989 87.5 53.163 87.5 52.5ZM26.0312 26.0312C25.375 25.375 25 24.4688 25 23.5313C25 21.5781 26.5781 20 28.5312 20H56.4531C58.4062 20 59.9844 21.5781 59.9844 23.5313C59.9844 24.4688 59.6094 25.375 58.9531 26.0312L55.2969 29.6875C51.9062 33.0938 47.2969 35 42.5 35C37.7031 35 33.0938 33.0938 29.7031 29.7031L26.0469 26.0469L26.0312 26.0312Z" fill="white"/>
</svg>
