<svg width="80" height="80" viewBox="0 0 80 80" fill="none" xmlns="http://www.w3.org/2000/svg">
<g clip-path="url(#clip0_27_696)">
<path d="M27.7812 9.875L29.3438 12.5938C29.7812 13.3438 30 14.2031 30 15.0781V21.5469C30 22.1562 30.25 22.75 30.6719 23.1719C31.6406 24.1406 33.25 24.0625 34.1094 22.9844L36.2344 20.3281C36.9688 19.4062 38.25 19.125 39.2969 19.6562L41.6719 20.8438C42.2031 21.1094 42.7969 21.25 43.3906 21.25C44.4062 21.25 45.3906 20.8438 46.1094 20.125L46.7188 19.5156C47.1719 19.0625 47.8594 18.9531 48.4375 19.2344L53 21.5156C54.2188 22.125 54.9688 23.3594 54.9688 24.7188C54.9688 26.3594 53.8594 27.7812 52.2656 28.1875L46.7344 29.5625C45.5781 29.8438 44.375 29.7969 43.2344 29.4219L38.2344 27.75C37.7188 27.5781 37.1875 27.4844 36.6406 27.4844C35.5469 27.4844 34.4844 27.8438 33.6094 28.5L27.5 33.125C25.9219 34.3125 25 36.1562 25 38.125V42.5C25 46.6406 28.3594 50 32.5 50H37.5C38.875 50 40 51.125 40 52.5V60C40 62.7656 42.2344 65 45 65C46.5781 65 48.0625 64.2656 49 63L53 57.6719C54.2969 55.9375 55 53.8281 55 51.6719V49.7812C55 49.1719 55.4062 48.6406 56 48.5L56.8281 48.2969C58.6875 47.8281 60 46.1562 60 44.2344C60 43.125 59.5625 42.0625 58.7812 41.2812L53.5469 36.0469C52.9688 35.4688 52.9688 34.5312 53.5469 33.9531C54.4375 33.0625 55.75 32.75 56.9531 33.1562L59.1562 33.8906C61.0781 34.5312 63.1719 33.6562 64.0781 31.8594C64.625 30.7656 65.8281 30.1719 67.0312 30.4219L71.3125 31.2812C67.5 17.5625 54.9219 7.5 40 7.5C35.6719 7.5 31.5625 8.34375 27.7812 9.875ZM0 40C0 29.3913 4.21427 19.2172 11.7157 11.7157C19.2172 4.21427 29.3913 0 40 0C50.6087 0 60.7828 4.21427 68.2843 11.7157C75.7857 19.2172 80 29.3913 80 40C80 50.6087 75.7857 60.7828 68.2843 68.2843C60.7828 75.7857 50.6087 80 40 80C29.3913 80 19.2172 75.7857 11.7157 68.2843C4.21427 60.7828 0 50.6087 0 40Z" fill="white"/>
</g>
<defs>
<clipPath id="clip0_27_696">
<rect width="80" height="80" fill="white"/>
</clipPath>
</defs>
</svg>
