<svg width="1286" height="314" viewBox="0 0 1286 314" fill="none" xmlns="http://www.w3.org/2000/svg">
<g opacity="0.2">
<path d="M1224.88 55.1895C1215.37 43.9774 1195.18 45.4735 1179.81 58.5286C1167.6 68.893 1157.94 91.0637 1152.48 105.968C1147.03 91.0637 1137.37 68.893 1125.16 58.5286C1109.78 45.4735 1089.6 43.9774 1080.08 55.1895C1070.56 66.4058 1075.31 86.0768 1090.69 99.1361C1105.9 112.052 1133.41 117.587 1147.89 119.701C1147.67 120.438 1147.56 120.841 1147.56 120.841C1147.56 120.841 1149.4 120.694 1152.48 120.318C1155.56 120.694 1157.41 120.841 1157.41 120.841C1157.41 120.841 1157.29 120.44 1157.07 119.701C1171.56 117.587 1199.06 112.052 1214.28 99.1361C1229.66 86.0768 1234.4 66.4079 1224.88 55.1895Z" fill="white"/>
<path d="M1265.28 173.318H1039.68V280.13H1265.28V173.318Z" fill="#D7A238"/>
<path d="M1125.56 280.13H1063.06L1169.87 173.318H1232.38L1125.56 280.13ZM1265.28 250.911V188.403L1173.55 280.13H1236.06L1265.28 250.911ZM1039.68 193.005V255.514L1121.88 173.316H1059.37L1039.68 193.005Z" fill="#F0C694"/>
<path d="M1181.79 173.318H1123.17V280.13H1181.79V173.318Z" fill="white"/>
<path d="M1285.23 111.315H1019.73V177.611H1285.23V111.315Z" fill="#EAB948"/>
<path d="M1025 15.4968C1015.49 4.28469 995.304 5.78074 979.926 18.8359C967.716 29.1981 958.057 51.3688 952.604 66.2733C947.152 51.3688 937.492 29.1981 925.282 18.8359C909.904 5.78074 889.722 4.28262 880.203 15.4968C870.683 26.713 875.431 46.382 890.809 59.4413C906.025 72.3572 933.534 77.8926 948.014 80.0037C947.794 80.7434 947.682 81.1466 947.682 81.1466C947.682 81.1466 949.523 80.9969 952.604 80.6208C955.684 80.9969 957.527 81.1466 957.527 81.1466C957.527 81.1466 957.414 80.7434 957.194 80.0037C971.677 77.8905 999.186 72.3551 1014.4 59.4413C1029.78 46.382 1034.53 26.711 1025 15.4968Z" fill="white"/>
<path d="M1065.4 133.621H839.802V313.179H1065.4V133.621Z" fill="#A3CFC5"/>
<path d="M981.914 133.621H923.29V313.179H981.914V133.621Z" fill="white"/>
<path d="M1085.35 71.6179H819.848V137.914H1085.35V71.6179Z" fill="#C5E5E0"/>
<path d="M184.715 31.8345C175.926 21.4847 157.289 22.8644 143.091 34.9201C131.813 44.4907 122.895 64.9638 117.86 78.7275C112.821 64.9638 103.903 44.4907 92.6265 34.9201C78.4265 22.8623 59.7881 21.4826 51.0009 31.8345C42.2074 42.1905 46.5917 60.3572 60.7938 72.417C74.8422 84.3439 100.246 89.4575 113.619 91.4044C113.415 92.0901 113.312 92.46 113.312 92.46C113.312 92.46 115.009 92.327 117.86 91.9758C120.705 92.327 122.406 92.46 122.406 92.46C122.406 92.46 122.3 92.0901 122.099 91.4044C135.474 89.4575 160.874 84.346 174.924 72.417C189.124 60.3551 193.51 42.1905 184.715 31.8345Z" fill="white"/>
<path d="M139.933 36.3811C139.933 60.1497 117.446 88.8573 117.446 88.8573C117.446 88.8573 94.962 60.1497 94.962 36.3811C94.962 12.6188 105.029 0 117.446 0C129.866 0.00207785 139.933 12.6188 139.933 36.3811Z" fill="white"/>
<path d="M218.008 126.716H17.7137V274.592H218.008V126.716Z" fill="#DF7B85"/>
<path d="M101.507 274.592H88.4252V126.716H101.507V274.592ZM42.6459 274.592H55.726V126.716H42.6459V274.592ZM147.293 126.716H134.213V274.592H147.293V126.716ZM193.074 126.716H179.992V274.592H193.074V126.716Z" fill="white"/>
<path d="M235.72 75.4866H0V130.531H235.72V75.4866Z" fill="#E48A8F"/>
<path d="M694.944 92.8159C687.038 83.505 670.274 84.7455 657.499 95.5898C647.355 104.203 639.331 122.614 634.803 134.996C630.271 122.614 622.251 104.203 612.107 95.5898C599.334 84.7455 582.568 83.505 574.662 92.8159C566.751 102.131 570.699 118.473 583.474 129.32C596.111 140.048 618.961 144.646 630.992 146.402C630.807 147.015 630.714 147.351 630.714 147.351C630.714 147.351 632.241 147.229 634.803 146.913C637.361 147.227 638.892 147.351 638.892 147.351C638.892 147.351 638.801 147.015 638.614 146.402C650.647 144.646 673.495 140.048 686.134 129.32C698.907 118.471 702.855 102.131 694.944 92.8159Z" fill="white"/>
<path d="M654.659 96.9027C654.659 118.28 634.431 144.105 634.431 144.105C634.431 144.105 614.205 118.28 614.205 96.9027C614.205 75.5278 623.263 64.1765 634.431 64.1765C645.604 64.1765 654.659 75.5278 654.659 96.9027Z" fill="white"/>
<path d="M724.89 178.163H544.72V299.034H724.89V178.163Z" fill="#D7A238"/>
<path d="M620.098 299.034H608.331V178.163H620.098V299.034ZM567.148 299.034H578.915V178.163H567.148V299.034ZM661.279 178.163H649.512V299.034H661.279V178.163ZM702.46 178.163H690.693V299.034H702.46V178.163Z" fill="white"/>
<path d="M740.825 132.077H528.784V181.592H740.825V132.077Z" fill="#EAB948"/>
<path d="M511.345 52.9788C501.827 41.7667 481.644 43.2628 466.266 56.318C454.057 66.6823 444.397 88.853 438.944 103.755C433.492 88.853 423.832 66.6823 411.623 56.318C396.245 43.2628 376.062 41.7667 366.544 52.9788C357.023 64.193 361.771 83.8662 377.151 96.9255C392.365 109.841 419.876 115.377 434.357 117.488C434.136 118.226 434.024 118.629 434.024 118.629C434.024 118.629 435.865 118.481 438.947 118.105C442.026 118.481 443.869 118.629 443.869 118.629C443.869 118.629 443.757 118.228 443.537 117.488C458.019 115.375 485.528 109.839 500.742 96.9255C516.116 83.8662 520.866 64.193 511.345 52.9788Z" fill="white"/>
<path d="M551.741 171.103H326.142V277.917H551.741V171.103Z" fill="#74CCD6"/>
<path opacity="0.3" d="M412.026 277.919H349.518L456.33 171.105H518.838L412.026 277.919ZM551.741 248.7V186.192L460.014 277.919H522.522L551.741 248.7ZM326.142 190.794V253.302L408.342 171.103H345.834L326.142 190.794Z" fill="white"/>
<path d="M468.253 171.103H409.628V277.917H468.253V171.103Z" fill="white"/>
<path d="M571.692 109.101H306.188V175.397H571.692V109.101Z" fill="#84E8FC"/>
<path d="M786.7 48.4114L698.011 274.413H875.391L786.7 48.4114Z" fill="#F0C694"/>
<path d="M850.478 210.931C848.213 213.395 845.909 215.824 843.507 218.164C842.792 218.85 842.052 219.508 841.312 220.175C842.711 218.831 838.374 222.376 838.036 222.621C837.177 223.176 836.641 223.529 836.361 223.729C834.998 224.439 833.618 225.121 832.234 225.788C841.271 221.424 828.887 226.201 829.109 226.6C827.38 227.039 825.774 227.448 825.267 227.604C822.768 228.042 820.26 228.42 817.75 228.774C817.648 228.784 817.563 228.794 817.463 228.807C815.616 228.977 813.764 229.123 811.911 229.258C804.154 229.825 796.368 229.95 788.591 229.943C788.273 229.937 787.901 229.931 787.471 229.925C785.001 229.883 782.53 229.81 780.059 229.742C775.958 229.623 771.858 229.463 767.758 229.306C750.57 228.632 733.382 227.884 716.18 228.113L703.904 259.395C703.935 259.397 703.962 259.397 703.995 259.399C713.741 259.727 723.482 260.193 733.227 260.523C755.923 261.288 778.393 261.072 800.965 258.443C822.319 255.956 843 250.462 862.831 242.417L850.478 210.931Z" fill="#E48A8F"/>
<path d="M837.138 176.938L827.503 152.384C826.869 152.664 826.256 152.928 825.824 153.102C824.808 153.41 822.447 154.162 821.394 154.447C821.334 154.463 821.269 154.478 821.209 154.493C820.043 154.746 817.905 155.218 816.937 155.392C814.597 155.814 812.239 156.151 809.885 156.491C809.384 156.562 808.299 156.687 807.265 156.801C786.108 158.825 764.854 158.283 743.616 158.199L731.568 188.889C754.477 188.802 777.348 188.526 800.246 185.232C812.69 183.441 825.064 180.671 837.138 176.938Z" fill="#EAB948"/>
<path d="M757.853 121.92C767.123 120.341 776.359 118.5 785.568 116.26C793.991 114.211 802.267 111.691 810.377 108.746L800.225 82.877C800.017 83.012 799.811 83.143 799.604 83.276C799.849 83.118 800.052 82.9809 800.223 82.8708L800.171 82.7378C798.544 83.6313 794.573 85.9647 793.574 86.4572C793.285 86.5902 793.038 86.7044 792.811 86.8146C791.621 87.2862 790.424 87.7475 789.225 88.2026C788.504 88.4706 787.777 88.7179 787.051 88.9734C786.438 89.1729 785.865 89.3578 785.466 89.4721C783.276 90.1079 781.069 90.6689 778.858 91.232C778.277 91.3795 777.267 91.6123 776.311 91.8305C773.926 92.3022 771.536 92.7468 769.138 93.1541L757.853 121.92ZM788.319 88.5558C791.515 87.4483 790.183 87.9262 788.319 88.5558Z" fill="#E48A8F"/>
<path d="M808.111 48.9061C808.111 60.7291 798.525 70.3164 786.7 70.3164C774.877 70.3164 765.29 60.7312 765.29 48.9061C765.29 37.0852 774.875 27.498 786.7 27.498C798.525 27.498 808.111 37.0831 808.111 48.9061Z" fill="white"/>
<path d="M276.947 25.5281L179.549 273.719H374.344L276.947 25.5281Z" fill="#C5E5E0"/>
<path d="M346.985 204.003C344.498 206.709 341.967 209.377 339.33 211.947C338.545 212.699 337.73 213.424 336.922 214.156C338.455 212.683 333.693 216.572 333.323 216.843C332.382 217.449 331.794 217.838 331.484 218.058C329.986 218.839 328.471 219.587 326.952 220.321C336.874 215.527 323.274 220.776 323.52 221.212C321.623 221.694 319.856 222.143 319.302 222.316C316.557 222.795 313.804 223.211 311.046 223.6C310.934 223.612 310.839 223.625 310.733 223.637C308.702 223.824 306.668 223.986 304.634 224.132C296.115 224.757 287.565 224.89 279.027 224.884C278.675 224.878 278.268 224.869 277.794 224.863C275.081 224.817 272.369 224.738 269.655 224.661C265.151 224.533 260.648 224.358 256.147 224.184C237.272 223.446 218.395 222.625 199.503 222.872L186.022 257.226C186.055 257.228 186.086 257.228 186.122 257.23C196.825 257.591 207.521 258.102 218.222 258.466C243.148 259.305 267.825 259.067 292.612 256.18C316.062 253.448 338.777 247.416 360.553 238.581L346.985 204.003Z" fill="#E48A8F"/>
<path d="M332.334 166.672L321.753 139.706C321.059 140.011 320.386 140.302 319.91 140.494C318.795 140.834 316.203 141.659 315.046 141.971C314.98 141.99 314.911 142.004 314.842 142.021C313.56 142.299 311.215 142.817 310.151 143.01C307.582 143.473 304.993 143.841 302.407 144.215C301.856 144.294 300.665 144.431 299.529 144.558C276.296 146.777 252.954 146.183 229.63 146.091L216.402 179.794C241.559 179.698 266.676 179.397 291.822 175.78C305.486 173.814 319.077 170.772 332.334 166.672Z" fill="white"/>
<path d="M245.268 106.253C255.447 104.518 265.589 102.496 275.702 100.038C284.953 97.7876 294.041 95.0199 302.949 91.7867L291.799 63.3763C291.575 63.5217 291.346 63.6693 291.12 63.8147C291.388 63.6402 291.61 63.4926 291.797 63.3679L291.741 63.2246C289.954 64.2054 285.593 66.7673 284.498 67.3096C284.182 67.4551 283.909 67.5819 283.66 67.7003C282.351 68.2177 281.036 68.7247 279.723 69.2234C278.931 69.5184 278.131 69.7906 277.335 70.0711C276.664 70.2893 276.032 70.4908 275.594 70.6197C273.192 71.3178 270.765 71.9349 268.34 72.5521C267.7 72.7141 266.593 72.9697 265.541 73.2087C262.921 73.7261 260.299 74.2144 257.664 74.6611L245.268 106.253ZM278.725 69.6119C282.233 68.3984 280.77 68.922 278.725 69.6119Z" fill="#E48A8F"/>
</g>
</svg>
