<svg width="90" height="80" viewBox="0 0 90 80" fill="none" xmlns="http://www.w3.org/2000/svg">
<g clip-path="url(#clip0_27_767)">
<path d="M43.0469 1.03125C43.4844 0.390625 44.2188 0 45 0C45.7812 0 46.5156 0.390625 46.9531 1.03125L57.3125 16.0938C59.0625 18.6406 60 21.6562 60 24.7344V25C60 33.2812 53.2812 40 45 40C36.7188 40 30 33.2812 30 25V24.7344C30 21.6406 30.9375 18.6406 32.6875 16.0938L43.0469 1.03125ZM88.7812 52.5469C90.8281 55.3281 90.2344 59.2344 87.4531 61.2812L67.6719 75.8594C64.0156 78.5469 59.6094 80 55.0625 80H30H5C2.23438 80 0 77.7656 0 75V65C0 62.2344 2.23438 60 5 60H10.75L17.7656 54.375C21.3125 51.5312 25.7188 50 30.2656 50H42.5H45H55C57.7656 50 60 52.2344 60 55C60 57.7656 57.7656 60 55 60H45H42.5C41.125 60 40 61.125 40 62.5C40 63.875 41.125 65 42.5 65H61.3438L80.0469 51.2188C82.8281 49.1719 86.7344 49.7656 88.7812 52.5469ZM30.25 60H30.1094C30.1562 60 30.2031 60 30.25 60Z" fill="white"/>
</g>
<defs>
<clipPath id="clip0_27_767">
<rect width="90" height="80" fill="white"/>
</clipPath>
</defs>
</svg>
