<svg width="90" height="80" viewBox="0 0 90 80" fill="none" xmlns="http://www.w3.org/2000/svg">
<path d="M10 10C4.48438 10 0 14.4844 0 20V60C0 65.5156 4.48438 70 10 70H80C85.5156 70 90 65.5156 90 60V20C90 14.4844 85.5156 10 80 10H10ZM20 60H10V50C15.5156 50 20 54.4844 20 60ZM10 30V20H20C20 25.5156 15.5156 30 10 30ZM70 60C70 54.4844 74.4844 50 80 50V60H70ZM80 30C74.4844 30 70 25.5156 70 20H80V30ZM45 25C48.9782 25 52.7936 26.5804 55.6066 29.3934C58.4197 32.2064 60 36.0218 60 40C60 43.9782 58.4197 47.7936 55.6066 50.6066C52.7936 53.4197 48.9782 55 45 55C41.0218 55 37.2064 53.4197 34.3934 50.6066C31.5804 47.7936 30 43.9782 30 40C30 36.0218 31.5804 32.2064 34.3934 29.3934C37.2064 26.5804 41.0218 25 45 25Z" fill="white"/>
</svg>
