<svg width="100" height="80" viewBox="0 0 100 80" fill="none" xmlns="http://www.w3.org/2000/svg">
<g clip-path="url(#clip0_27_755)">
<path d="M33.0938 0C34.3125 0 35.3281 0.890625 35.7031 2.0625C37.625 8.10938 43.2969 12.5 50 12.5C56.7031 12.5 62.375 8.10938 64.2969 2.0625C64.6719 0.890625 65.6875 0 66.9063 0H68.875C72.3906 0 75.7813 1.23438 78.4844 3.48438L98.2031 19.9062C99.2344 20.7656 99.875 22.0156 99.9844 23.3594C100.094 24.7031 99.6563 26.0312 98.7656 27.0469L90.0156 37.0469C88.2344 39.0938 85.1406 39.3281 83.0469 37.5938L75 30.8906V70C75 75.5156 70.5156 80 65 80H35C29.4844 80 25 75.5156 25 70V30.8906L16.9531 37.5938C14.875 39.3281 11.7813 39.0938 9.9844 37.0469L1.2344 27.0469C0.343772 26.0312 -0.0937283 24.7031 0.0156467 23.3594C0.125022 22.0156 0.765647 20.7656 1.7969 19.9062L21.5156 3.48438C24.2188 1.23438 27.6094 0 31.125 0H33.0938Z" fill="white"/>
</g>
<defs>
<clipPath id="clip0_27_755">
<rect width="100" height="80" fill="white"/>
</clipPath>
</defs>
</svg>
