<svg width="310" height="97" viewBox="0 0 310 97" fill="none" xmlns="http://www.w3.org/2000/svg">
<path d="M124.336 58.352C123.163 58.352 122.021 58.2453 120.912 58.032C119.824 57.84 118.811 57.5627 117.872 57.2C116.933 56.816 116.112 56.368 115.408 55.856L116.848 51.952C117.531 52.4213 118.267 52.8267 119.056 53.168C119.845 53.5093 120.688 53.776 121.584 53.968C122.48 54.1387 123.397 54.224 124.336 54.224C125.893 54.224 127.003 53.9893 127.664 53.52C128.325 53.0293 128.656 52.4213 128.656 51.696C128.656 51.2907 128.549 50.9387 128.336 50.64C128.144 50.3413 127.813 50.0853 127.344 49.872C126.896 49.6373 126.277 49.4453 125.488 49.296L121.872 48.528C119.824 48.1013 118.299 47.376 117.296 46.352C116.315 45.3067 115.824 43.9413 115.824 42.256C115.824 40.8053 116.208 39.5467 116.976 38.48C117.765 37.4133 118.843 36.5813 120.208 35.984C121.595 35.3867 123.184 35.088 124.976 35.088C126.021 35.088 127.024 35.1947 127.984 35.408C128.944 35.6 129.829 35.888 130.64 36.272C131.451 36.656 132.155 37.1147 132.752 37.648L131.312 41.296C130.459 40.6133 129.499 40.1013 128.432 39.76C127.365 39.3973 126.203 39.216 124.944 39.216C124.048 39.216 123.28 39.3333 122.64 39.568C122.021 39.8027 121.541 40.1333 121.2 40.56C120.88 40.9867 120.72 41.4773 120.72 42.032C120.72 42.6507 120.944 43.152 121.392 43.536C121.84 43.92 122.619 44.2293 123.728 44.464L127.344 45.232C129.435 45.68 130.992 46.4053 132.016 47.408C133.04 48.3893 133.552 49.6907 133.552 51.312C133.552 52.72 133.168 53.9573 132.4 55.024C131.653 56.0693 130.587 56.8907 129.2 57.488C127.835 58.064 126.213 58.352 124.336 58.352ZM133.961 58L144.329 35.44H148.329L158.697 58H153.705L151.017 51.728L153.001 53.104H139.657L141.641 51.728L138.985 58H133.961ZM146.281 40.72L142.185 50.48L141.321 49.232H151.337L150.473 50.48L146.345 40.72H146.281ZM165.975 58L155.831 35.44H161.143L168.919 53.456H167.319L175.095 35.44H180.183L170.039 58H165.975ZM181.897 58V35.44H197.353V39.312H186.633V44.592H196.649V48.496H186.633V54.128H197.353V58H181.897Z" fill="white"/>
<g clip-path="url(#clip0_30_786)">
<path d="M49.2148 96.7837C75.9409 96.7837 97.6067 75.1179 97.6067 48.3918C97.6067 21.6658 75.9409 0 49.2148 0C22.4888 0 0.822998 21.6658 0.822998 48.3918C0.822998 75.1179 22.4888 96.7837 49.2148 96.7837Z" fill="white"/>
<path d="M87.6826 39.5262L77.664 49.5259L67.4941 59.7147C64.9422 62.2666 60.8024 62.2666 58.2694 59.7147L38.0809 39.5262C34.943 36.3883 33.3741 32.2674 33.3741 28.1466C33.3741 24.0257 34.943 19.9048 38.0809 16.7669C40.6518 14.1961 43.8653 12.6839 47.1922 12.2113C47.9483 12.0979 48.7045 12.0601 49.4606 12.0601C53.5815 12.0601 57.7023 13.629 60.8402 16.7669C61.9744 17.9011 63.808 17.9011 64.9422 16.7669C68.0801 13.629 72.201 12.0601 76.3218 12.0601C80.4427 12.0601 84.5636 13.629 87.7015 16.7669C93.9584 23.0616 93.9584 33.2315 87.6826 39.5262Z" fill="#E06E8A"/>
<path d="M87.6826 39.5264L77.664 49.5261L67.4941 59.7148C64.9422 62.2667 60.8024 62.2667 58.2694 59.7148L38.0809 39.5264C34.943 36.3884 33.3741 32.2676 33.3741 28.1467C33.3741 24.0258 34.943 19.905 38.0809 16.7671C40.6518 14.1962 43.8653 12.684 47.1922 12.2114C47.1922 12.2114 60.3299 37.7306 87.6826 39.5264Z" fill="#BC6383"/>
<path d="M77.664 49.5261L67.4941 59.7148C64.9422 62.2667 60.8024 62.2667 58.2694 59.7148L38.0809 39.5264C34.943 36.3884 33.3741 32.2676 33.3741 28.1467C33.3741 24.0258 34.943 19.905 38.0809 16.7671C40.6518 14.1962 43.8653 12.684 47.1922 12.2114C47.1922 12.2114 43.5439 42.4374 77.664 49.5261Z" fill="#B45B77"/>
<path d="M85.6878 23.878C87.498 22.3974 87.4707 19.3694 85.6266 17.1147C83.7826 14.8599 80.8202 14.2323 79.0099 15.7128C77.1996 17.1934 77.227 20.2214 79.0711 22.4761C80.9151 24.7309 83.8775 25.3585 85.6878 23.878Z" fill="#EEC8D7"/>
<path d="M89.0805 28.4725C89.8402 27.8512 89.8291 26.581 89.0558 25.6355C88.2825 24.69 87.0398 24.4271 86.2801 25.0484C85.5204 25.6697 85.5315 26.9399 86.3048 27.8854C87.0781 28.8309 88.3208 29.0938 89.0805 28.4725Z" fill="#EEC8D7"/>
<path d="M31.2947 19.2244L26.9092 23.6288L22.4481 28.0899C21.3328 29.2052 19.5181 29.2052 18.4029 28.0899L9.55622 19.2433C8.1763 17.8633 7.49579 16.0675 7.49579 14.2529C7.49579 12.4382 8.1763 10.6424 9.55622 9.26244C10.6904 8.12826 12.0892 7.46665 13.5637 7.25872C13.885 7.22091 14.2253 7.18311 14.5466 7.18311C16.3613 7.18311 18.1571 7.86362 19.537 9.24354C20.0285 9.73502 20.8413 9.73502 21.3328 9.24354C22.7128 7.86362 24.5085 7.18311 26.3232 7.18311C28.1379 7.18311 29.9337 7.86362 31.3136 9.24354C34.0546 12.0034 34.0546 16.4834 31.2947 19.2244Z" fill="#E06E8A"/>
<path d="M31.2947 19.2244L26.9092 23.6288L22.4481 28.09C21.3328 29.2052 19.5181 29.2052 18.4029 28.09L9.55622 19.2433C8.1763 17.8634 7.49579 16.0676 7.49579 14.2529C7.49579 12.4382 8.1763 10.6424 9.55622 9.26251C10.6904 8.12833 12.0892 7.46672 13.5637 7.25879C13.5448 7.25879 19.3102 18.4494 31.2947 19.2244Z" fill="#BC6383"/>
<path d="M26.9092 23.6288L22.4481 28.09C21.3328 29.2052 19.5181 29.2052 18.4029 28.09L9.55622 19.2433C8.1763 17.8634 7.49579 16.0676 7.49579 14.2529C7.49579 12.4382 8.1763 10.6424 9.55622 9.26251C10.6904 8.12833 12.0892 7.46672 13.5637 7.25879C13.5448 7.25879 11.938 20.5098 26.9092 23.6288Z" fill="#B45B77"/>
<path d="M30.4447 12.3795C31.2367 11.7318 31.2197 10.4009 30.4067 9.40684C29.5937 8.41282 28.2927 8.13209 27.5007 8.77982C26.7087 9.42755 26.7257 10.7585 27.5387 11.7525C28.3516 12.7465 29.6527 13.0272 30.4447 12.3795Z" fill="#EEC8D7"/>
<path d="M31.9011 14.3774C32.2324 14.1064 32.2278 13.5526 31.8907 13.1404C31.5536 12.7283 31.0117 12.6138 30.6804 12.8848C30.349 13.1558 30.3537 13.7096 30.6908 14.1218C31.0279 14.5339 31.5697 14.6484 31.9011 14.3774Z" fill="#EEC8D7"/>
<path d="M29.102 41.5677L26.2476 44.4221L23.3555 47.3142C22.6371 48.0326 21.4462 48.0326 20.7279 47.3142L14.9814 41.5677C14.093 40.6793 13.6393 39.5073 13.6393 38.3353C13.6393 37.1633 14.093 35.9913 14.9814 35.1029C15.7186 34.3656 16.626 33.9498 17.5711 33.7985C17.7791 33.7607 18.0059 33.7607 18.2138 33.7607C19.3858 33.7607 20.5578 34.2144 21.4462 35.1029C21.7676 35.4242 22.2969 35.4242 22.6182 35.1029C23.5067 34.2144 24.6787 33.7607 25.8507 33.7607C27.0226 33.7607 28.1946 34.2144 29.0831 35.1029C30.8789 36.8797 30.8789 39.7719 29.102 41.5677Z" fill="#E06E8A"/>
<path d="M29.102 41.5675L26.2476 44.4219L23.3555 47.314C22.6371 48.0323 21.4462 48.0323 20.7279 47.314L14.9814 41.5675C14.093 40.6791 13.6393 39.5071 13.6393 38.3351C13.6393 37.1631 14.093 35.9911 14.9814 35.1027C15.7186 34.3654 16.626 33.9496 17.5711 33.7983C17.5711 33.7983 21.3139 41.0571 29.102 41.5675Z" fill="#BC6383"/>
<path d="M26.2476 44.4219L23.3555 47.314C22.6371 48.0323 21.4462 48.0323 20.7279 47.314L14.9814 41.5675C14.093 40.6791 13.6393 39.5071 13.6393 38.3351C13.6393 37.1631 14.093 35.9911 14.9814 35.1027C15.7186 34.3654 16.626 33.9496 17.5711 33.7983C17.5711 33.7983 16.5315 42.3992 26.2476 44.4219Z" fill="#B45B77"/>
<path d="M28.5462 37.1188C29.0634 36.6958 29.0541 35.8288 28.5253 35.1822C27.9965 34.5357 27.1486 34.3545 26.6314 34.7775C26.1142 35.2005 26.1235 36.0676 26.6523 36.7141C27.181 37.3606 28.029 37.5418 28.5462 37.1188Z" fill="#EEC8D7"/>
<path d="M29.4969 38.4161C29.7151 38.2376 29.7152 37.8768 29.4971 37.6101C29.2789 37.3434 28.9252 37.2719 28.707 37.4503C28.4888 37.6288 28.4888 37.9896 28.7069 38.2563C28.925 38.523 29.2787 38.5945 29.4969 38.4161Z" fill="#EEC8D7"/>
<path d="M37.6651 77.0486C44.5836 81.7555 51.7857 79.8273 51.7857 79.8273L87.1911 63.6652C88.968 62.8524 90.2534 61.2456 90.5748 59.3364C92.5218 60.5651 92.9187 62.2475 92.7486 63.7408C92.5218 65.7635 91.1797 67.4836 89.3272 68.3343L53.9217 84.4964C53.9217 84.4964 46.7386 86.4245 39.8011 81.7176C39.8011 81.7176 22.3536 73.9674 14.9814 78.6932L12.8454 74.0241C20.2176 69.2983 37.6651 77.0486 37.6651 77.0486Z" fill="#CA8F80"/>
<path d="M5.03839 56.917L12.8454 74.0243C20.2176 69.2985 37.6651 77.0488 37.6651 77.0488C44.5836 81.7556 51.7857 79.8275 51.7857 79.8275L87.1911 63.6654C88.968 62.8526 90.2534 61.2458 90.5748 59.3366C90.0455 58.9964 89.4028 58.6939 88.6466 58.4482C87.6637 58.1268 86.624 58.0701 85.6032 58.2591L58.1182 63.7221C58.5719 62.0019 57.57 60.2061 56.5303 58.9396C56.4736 58.864 56.398 58.7695 56.3413 58.6939C56.2657 58.5994 56.1901 58.5049 56.0956 58.4293C55.3205 57.5975 54.3565 56.9737 53.2979 56.5768L39.5365 51.3784C38.856 51.1327 38.1755 50.8869 37.4949 50.6979C33.1472 49.4125 28.5538 49.129 24.0549 49.904C13.6393 51.7376 5.03839 56.917 5.03839 56.917Z" fill="#E2A18B"/>
<path d="M58.1182 63.7222C58.1182 63.7222 56.1523 68.2022 47.627 65.3856C47.627 65.3856 39.6499 61.4349 36.9846 62.9282C36.9846 62.9282 40.0847 59.7525 47.7404 63.7222C47.7404 63.7222 54.451 66.5765 58.1182 63.7222Z" fill="#CA8F80"/>
<path d="M5.03839 56.917L7.43908 62.1721C18.4029 53.609 30.8222 51.3028 37.4949 50.6979C33.1472 49.4125 28.5538 49.129 24.0549 49.904C13.6393 51.7376 5.03839 56.917 5.03839 56.917Z" fill="#D89988"/>
<path d="M14.9436 78.5988L12.6941 80.1489C11.5221 78.8067 10.4258 77.389 9.40499 75.9146C5.81341 70.7162 3.20479 64.7807 1.86267 58.3725L5.05729 56.917L7.43907 62.172L12.8454 74.0432L12.9588 74.3078L13.0722 74.5535L14.9436 78.5988Z" fill="#D7B26B"/>
<path d="M12.9588 74.2889L9.40499 75.9146C5.81341 70.7162 3.20479 64.7807 1.86267 58.3725L5.05729 56.917L7.43907 62.172L12.8453 74.0432L12.9588 74.2889Z" fill="#EDC771"/>
</g>
<defs>
<clipPath id="clip0_30_786">
<rect width="96.7837" height="96.7837" fill="white" transform="translate(0.822998)"/>
</clipPath>
</defs>
</svg>
