<svg width="125" height="60" viewBox="0 0 125 60" fill="none" xmlns="http://www.w3.org/2000/svg">
<path d="M77.3975 36.22C76.6642 36.22 75.9508 36.1533 75.2575 36.02C74.5775 35.9 73.9442 35.7267 73.3575 35.5C72.7708 35.26 72.2575 34.98 71.8175 34.66L72.7175 32.22C73.1442 32.5133 73.6042 32.7667 74.0975 32.98C74.5908 33.1933 75.1175 33.36 75.6775 33.48C76.2375 33.5867 76.8108 33.64 77.3975 33.64C78.3708 33.64 79.0642 33.4933 79.4775 33.2C79.8908 32.8933 80.0975 32.5133 80.0975 32.06C80.0975 31.8067 80.0308 31.5867 79.8975 31.4C79.7775 31.2133 79.5708 31.0533 79.2775 30.92C78.9975 30.7733 78.6108 30.6533 78.1175 30.56L75.8575 30.08C74.5775 29.8133 73.6242 29.36 72.9975 28.72C72.3842 28.0667 72.0775 27.2133 72.0775 26.16C72.0775 25.2533 72.3175 24.4667 72.7975 23.8C73.2908 23.1333 73.9642 22.6133 74.8175 22.24C75.6842 21.8667 76.6775 21.68 77.7975 21.68C78.4508 21.68 79.0775 21.7467 79.6775 21.88C80.2775 22 80.8308 22.18 81.3375 22.42C81.8442 22.66 82.2842 22.9467 82.6575 23.28L81.7575 25.56C81.2242 25.1333 80.6242 24.8133 79.9575 24.6C79.2908 24.3733 78.5642 24.26 77.7775 24.26C77.2175 24.26 76.7375 24.3333 76.3375 24.48C75.9508 24.6267 75.6508 24.8333 75.4375 25.1C75.2375 25.3667 75.1375 25.6733 75.1375 26.02C75.1375 26.4067 75.2775 26.72 75.5575 26.96C75.8375 27.2 76.3242 27.3933 77.0175 27.54L79.2775 28.02C80.5842 28.3 81.5575 28.7533 82.1975 29.38C82.8375 29.9933 83.1575 30.8067 83.1575 31.82C83.1575 32.7 82.9175 33.4733 82.4375 34.14C81.9708 34.7933 81.3042 35.3067 80.4375 35.68C79.5842 36.04 78.5708 36.22 77.3975 36.22ZM83.4133 36L89.8933 21.9H92.3933L98.8733 36H95.7533L94.0733 32.08L95.3133 32.94H86.9733L88.2133 32.08L86.5533 36H83.4133ZM91.1133 25.2L88.5533 31.3L88.0133 30.52H94.2733L93.7333 31.3L91.1533 25.2H91.1133ZM103.422 36L97.0819 21.9H100.402L105.262 33.16H104.262L109.122 21.9H112.302L105.962 36H103.422ZM113.373 36V21.9H123.033V24.32H116.333V27.62H122.593V30.06H116.333V33.58H123.033V36H113.373Z" fill="#001223"/>
<g clip-path="url(#clip0_5_43)">
<path d="M30 60C46.5685 60 60 46.5685 60 30C60 13.4315 46.5685 0 30 0C13.4315 0 0 13.4315 0 30C0 46.5685 13.4315 60 30 60Z" fill="#71BCFF"/>
<path d="M53.8477 24.5039L47.6367 30.7031L41.332 37.0195C39.75 38.6016 37.1836 38.6016 35.6133 37.0195L23.0977 24.5039C21.1523 22.5586 20.1797 20.0039 20.1797 17.4492C20.1797 14.8945 21.1523 12.3398 23.0977 10.3945C24.6914 8.80078 26.6836 7.86328 28.7461 7.57031C29.2148 7.5 29.6836 7.47656 30.1523 7.47656C32.707 7.47656 35.2617 8.44922 37.207 10.3945C37.9102 11.0977 39.0469 11.0977 39.75 10.3945C41.6953 8.44922 44.25 7.47656 46.8047 7.47656C49.3594 7.47656 51.9141 8.44922 53.8594 10.3945C57.7383 14.2969 57.7383 20.6016 53.8477 24.5039Z" fill="#E06E8A"/>
<path d="M53.8477 24.5039L47.6367 30.7031L41.332 37.0195C39.75 38.6016 37.1836 38.6016 35.6133 37.0195L23.0977 24.5039C21.1523 22.5586 20.1797 20.0039 20.1797 17.4492C20.1797 14.8945 21.1523 12.3398 23.0977 10.3945C24.6914 8.80078 26.6836 7.86328 28.7461 7.57031C28.7461 7.57031 36.8906 23.3906 53.8477 24.5039Z" fill="#BC6383"/>
<path d="M47.6367 30.7031L41.332 37.0195C39.75 38.6016 37.1836 38.6016 35.6133 37.0195L23.0977 24.5039C21.1523 22.5586 20.1797 20.0039 20.1797 17.4492C20.1797 14.8945 21.1523 12.3398 23.0977 10.3945C24.6914 8.80078 26.6836 7.86328 28.7461 7.57031C28.7461 7.57031 26.4844 26.3086 47.6367 30.7031Z" fill="#B45B77"/>
<path d="M52.611 14.8028C53.7332 13.885 53.7162 12.0078 52.5731 10.61C51.4299 9.21221 49.5933 8.82313 48.4711 9.74096C47.3488 10.6588 47.3658 12.536 48.509 13.9338C49.6522 15.3316 51.4887 15.7207 52.611 14.8028Z" fill="#EEC8D7"/>
<path d="M54.7143 17.6514C55.1852 17.2662 55.1784 16.4788 54.699 15.8926C54.2196 15.3064 53.4492 15.1435 52.9782 15.5286C52.5073 15.9138 52.5141 16.7012 52.9935 17.2874C53.4729 17.8736 54.2433 18.0365 54.7143 17.6514Z" fill="#EEC8D7"/>
<path d="M18.8906 11.918L16.1719 14.6484L13.4063 17.4141C12.7148 18.1055 11.5898 18.1055 10.8984 17.4141L5.41406 11.9297C4.55859 11.0742 4.13672 9.96094 4.13672 8.83594C4.13672 7.71094 4.55859 6.59766 5.41406 5.74219C6.11719 5.03906 6.98438 4.62891 7.89844 4.5C8.09766 4.47656 8.30859 4.45312 8.50781 4.45312C9.63281 4.45312 10.7461 4.875 11.6016 5.73047C11.9063 6.03516 12.4102 6.03516 12.7148 5.73047C13.5703 4.875 14.6836 4.45312 15.8086 4.45312C16.9336 4.45312 18.0469 4.875 18.9023 5.73047C20.6016 7.44141 20.6016 10.2187 18.8906 11.918Z" fill="#E06E8A"/>
<path d="M18.8906 11.918L16.1719 14.6484L13.4063 17.4141C12.7148 18.1055 11.5898 18.1055 10.8984 17.4141L5.41406 11.9297C4.55859 11.0742 4.13672 9.96094 4.13672 8.83594C4.13672 7.71094 4.55859 6.59766 5.41406 5.74219C6.11719 5.03906 6.98438 4.62891 7.89844 4.5C7.88672 4.5 11.4609 11.4375 18.8906 11.918Z" fill="#BC6383"/>
<path d="M16.1719 14.6484L13.4063 17.4141C12.7148 18.1055 11.5898 18.1055 10.8984 17.4141L5.41406 11.9297C4.55859 11.0742 4.13672 9.96094 4.13672 8.83594C4.13672 7.71094 4.55859 6.59766 5.41406 5.74219C6.11719 5.03906 6.98438 4.62891 7.89844 4.5C7.88672 4.5 6.89062 12.7148 16.1719 14.6484Z" fill="#B45B77"/>
<path d="M18.3636 7.67465C18.8546 7.2731 18.8441 6.44802 18.3401 5.83178C17.8361 5.21555 17.0295 5.04151 16.5385 5.44306C16.0476 5.84462 16.0581 6.6697 16.5621 7.28593C17.0661 7.90217 17.8727 8.0762 18.3636 7.67465Z" fill="#EEC8D7"/>
<path d="M19.2665 8.91305C19.4719 8.74505 19.469 8.40173 19.2601 8.14621C19.0511 7.8907 18.7152 7.81976 18.5097 7.98775C18.3043 8.15575 18.3072 8.49907 18.5162 8.75458C18.7252 9.0101 19.0611 9.08104 19.2665 8.91305Z" fill="#EEC8D7"/>
<path d="M17.5313 25.7695L15.7617 27.5391L13.9687 29.332C13.5234 29.7773 12.7852 29.7773 12.3398 29.332L8.77734 25.7695C8.22656 25.2187 7.94531 24.4922 7.94531 23.7656C7.94531 23.0391 8.22656 22.3125 8.77734 21.7617C9.23437 21.3047 9.79687 21.0469 10.3828 20.9531C10.5117 20.9297 10.6523 20.9297 10.7812 20.9297C11.5078 20.9297 12.2344 21.2109 12.7852 21.7617C12.9844 21.9609 13.3125 21.9609 13.5117 21.7617C14.0625 21.2109 14.7891 20.9297 15.5156 20.9297C16.2422 20.9297 16.9687 21.2109 17.5195 21.7617C18.6328 22.8633 18.6328 24.6562 17.5313 25.7695Z" fill="#E06E8A"/>
<path d="M17.5312 25.7695L15.7617 27.5391L13.9687 29.332C13.5234 29.7773 12.7852 29.7773 12.3398 29.332L8.77734 25.7695C8.22656 25.2187 7.94531 24.4922 7.94531 23.7656C7.94531 23.0391 8.22656 22.3125 8.77734 21.7617C9.23437 21.3047 9.79687 21.0469 10.3828 20.9531C10.3828 20.9531 12.7031 25.4531 17.5312 25.7695Z" fill="#BC6383"/>
<path d="M15.7617 27.5391L13.9687 29.332C13.5234 29.7773 12.7852 29.7773 12.3398 29.332L8.77734 25.7695C8.22656 25.2187 7.94531 24.4922 7.94531 23.7656C7.94531 23.0391 8.22656 22.3125 8.77734 21.7617C9.23437 21.3047 9.79687 21.0469 10.3828 20.9531C10.3828 20.9531 9.73828 26.2852 15.7617 27.5391Z" fill="#B45B77"/>
<path d="M17.1867 23.0113C17.5073 22.7491 17.5015 22.2116 17.1737 21.8108C16.846 21.41 16.3203 21.2977 15.9996 21.5599C15.679 21.8221 15.6848 22.3596 16.0126 22.7604C16.3404 23.1613 16.8661 23.2736 17.1867 23.0113Z" fill="#EEC8D7"/>
<path d="M17.7761 23.8158C17.9114 23.7052 17.9114 23.4815 17.7762 23.3161C17.641 23.1508 17.4217 23.1065 17.2864 23.2171C17.1512 23.3277 17.1511 23.5514 17.2863 23.7168C17.4216 23.8821 17.6408 23.9265 17.7761 23.8158Z" fill="#EEC8D7"/>
<path d="M22.8398 47.7656C27.1289 50.6836 31.5938 49.4883 31.5938 49.4883L53.543 39.4687C54.6445 38.9648 55.4414 37.9688 55.6406 36.7852C56.8477 37.5469 57.0938 38.5898 56.9883 39.5156C56.8477 40.7695 56.0156 41.8359 54.8672 42.3633L32.918 52.3828C32.918 52.3828 28.4648 53.5781 24.1641 50.6602C24.1641 50.6602 13.3477 45.8555 8.77734 48.7852L7.45312 45.8906C12.0234 42.9609 22.8398 47.7656 22.8398 47.7656Z" fill="#CA8F80"/>
<path d="M2.61328 35.2852L7.45312 45.8906C12.0234 42.9609 22.8398 47.7656 22.8398 47.7656C27.1289 50.6836 31.5938 49.4883 31.5938 49.4883L53.543 39.4687C54.6445 38.9648 55.4414 37.9687 55.6406 36.7852C55.3125 36.5742 54.9141 36.3867 54.4453 36.2344C53.8359 36.0352 53.1914 36 52.5586 36.1172L35.5195 39.5039C35.8008 38.4375 35.1797 37.3242 34.5352 36.5391C34.5 36.4922 34.4531 36.4336 34.418 36.3867C34.3711 36.3281 34.3242 36.2695 34.2656 36.2227C33.7852 35.707 33.1875 35.3203 32.5313 35.0742L24 31.8516C23.5781 31.6992 23.1562 31.5469 22.7344 31.4297C20.0391 30.6328 17.1914 30.457 14.4023 30.9375C7.94531 32.0742 2.61328 35.2852 2.61328 35.2852Z" fill="#E2A18B"/>
<path d="M35.5195 39.5039C35.5195 39.5039 34.3008 42.2813 29.0156 40.5352C29.0156 40.5352 24.0703 38.0859 22.418 39.0117C22.418 39.0117 24.3398 37.043 29.0859 39.5039C29.0859 39.5039 33.2461 41.2734 35.5195 39.5039Z" fill="#CA8F80"/>
<path d="M2.61328 35.2852L4.10156 38.543C10.8984 33.2344 18.5977 31.8047 22.7344 31.4297C20.0391 30.6328 17.1914 30.457 14.4023 30.9375C7.94531 32.0742 2.61328 35.2852 2.61328 35.2852Z" fill="#D89988"/>
<path d="M8.75391 48.7266L7.35938 49.6875C6.63281 48.8555 5.95313 47.9766 5.32031 47.0625C3.09375 43.8398 1.47656 40.1602 0.644531 36.1875L2.625 35.2852L4.10156 38.543L7.45313 45.9023L7.52344 46.0664L7.59375 46.2187L8.75391 48.7266Z" fill="#D7B26B"/>
<path d="M7.52344 46.0547L5.32031 47.0625C3.09375 43.8398 1.47656 40.1602 0.644531 36.1875L2.625 35.2852L4.10156 38.543L7.45312 45.9023L7.52344 46.0547Z" fill="#EDC771"/>
</g>
<defs>
<clipPath id="clip0_5_43">
<rect width="60" height="60" fill="white"/>
</clipPath>
</defs>
</svg>
